<?xml version="1.0" encoding="utf-8" standalone="no"?>
<!DOCTYPE svg PUBLIC "-//W3C//DTD SVG 1.1//EN"
  "http://www.w3.org/Graphics/SVG/1.1/DTD/svg11.dtd">
<!-- Created with matplotlib (https://matplotlib.org/) -->
<svg height="360pt" version="1.1" viewBox="0 0 576 360" width="576pt" xmlns="http://www.w3.org/2000/svg" xmlns:xlink="http://www.w3.org/1999/xlink">
 <defs>
  <style type="text/css">
*{stroke-linecap:butt;stroke-linejoin:round;}
  </style>
 </defs>
 <g id="figure_1">
  <g id="axes_1">
   <g id="patch_1">
    <path d="M 40.94 304.98 
L 560.88 304.98 
L 560.88 15.12 
L 40.94 15.12 
z
" style="fill:#f0f0f0;"/>
   </g>
   <g id="matplotlib.axis_1">
    <g id="xtick_1">
     <g id="line2d_1"/>
     <g id="text_1">
      <!-- 0 -->
      <defs>
       <path d="M 31.78125 66.40625 
Q 24.171875 66.40625 20.328125 58.90625 
Q 16.5 51.421875 16.5 36.375 
Q 16.5 21.390625 20.328125 13.890625 
Q 24.171875 6.390625 31.78125 6.390625 
Q 39.453125 6.390625 43.28125 13.890625 
Q 47.125 21.390625 47.125 36.375 
Q 47.125 51.421875 43.28125 58.90625 
Q 39.453125 66.40625 31.78125 66.40625 
z
M 31.78125 74.21875 
Q 44.046875 74.21875 50.515625 64.515625 
Q 56.984375 54.828125 56.984375 36.375 
Q 56.984375 17.96875 50.515625 8.265625 
Q 44.046875 -1.421875 31.78125 -1.421875 
Q 19.53125 -1.421875 13.0625 8.265625 
Q 6.59375 17.96875 6.59375 36.375 
Q 6.59375 54.828125 13.0625 64.515625 
Q 19.53125 74.21875 31.78125 74.21875 
z
" id="DejaVuSans-48"/>
      </defs>
      <g transform="translate(56.147847 319.117813)scale(0.14 -0.14)">
       <use xlink:href="#DejaVuSans-48"/>
      </g>
     </g>
    </g>
    <g id="xtick_2">
     <g id="line2d_2"/>
     <g id="text_2">
      <!-- 50 -->
      <defs>
       <path d="M 10.796875 72.90625 
L 49.515625 72.90625 
L 49.515625 64.59375 
L 19.828125 64.59375 
L 19.828125 46.734375 
Q 21.96875 47.46875 24.109375 47.828125 
Q 26.265625 48.1875 28.421875 48.1875 
Q 40.625 48.1875 47.75 41.5 
Q 54.890625 34.8125 54.890625 23.390625 
Q 54.890625 11.625 47.5625 5.09375 
Q 40.234375 -1.421875 26.90625 -1.421875 
Q 22.3125 -1.421875 17.546875 -0.640625 
Q 12.796875 0.140625 7.71875 1.703125 
L 7.71875 11.625 
Q 12.109375 9.234375 16.796875 8.0625 
Q 21.484375 6.890625 26.703125 6.890625 
Q 35.15625 6.890625 40.078125 11.328125 
Q 45.015625 15.765625 45.015625 23.390625 
Q 45.015625 31 40.078125 35.4375 
Q 35.15625 39.890625 26.703125 39.890625 
Q 22.75 39.890625 18.8125 39.015625 
Q 14.890625 38.140625 10.796875 36.28125 
z
" id="DejaVuSans-53"/>
      </defs>
      <g transform="translate(131.134891 319.117813)scale(0.14 -0.14)">
       <use xlink:href="#DejaVuSans-53"/>
       <use x="63.623047" xlink:href="#DejaVuSans-48"/>
      </g>
     </g>
    </g>
    <g id="xtick_3">
     <g id="line2d_3"/>
     <g id="text_3">
      <!-- 100 -->
      <defs>
       <path d="M 12.40625 8.296875 
L 28.515625 8.296875 
L 28.515625 63.921875 
L 10.984375 60.40625 
L 10.984375 69.390625 
L 28.421875 72.90625 
L 38.28125 72.90625 
L 38.28125 8.296875 
L 54.390625 8.296875 
L 54.390625 0 
L 12.40625 0 
z
" id="DejaVuSans-49"/>
      </defs>
      <g transform="translate(206.121936 319.117813)scale(0.14 -0.14)">
       <use xlink:href="#DejaVuSans-49"/>
       <use x="63.623047" xlink:href="#DejaVuSans-48"/>
       <use x="127.246094" xlink:href="#DejaVuSans-48"/>
      </g>
     </g>
    </g>
    <g id="xtick_4">
     <g id="line2d_4"/>
     <g id="text_4">
      <!-- 150 -->
      <g transform="translate(285.56273 319.117813)scale(0.14 -0.14)">
       <use xlink:href="#DejaVuSans-49"/>
       <use x="63.623047" xlink:href="#DejaVuSans-53"/>
       <use x="127.246094" xlink:href="#DejaVuSans-48"/>
      </g>
     </g>
    </g>
    <g id="xtick_5">
     <g id="line2d_5"/>
     <g id="text_5">
      <!-- 200 -->
      <defs>
       <path d="M 19.1875 8.296875 
L 53.609375 8.296875 
L 53.609375 0 
L 7.328125 0 
L 7.328125 8.296875 
Q 12.9375 14.109375 22.625 23.890625 
Q 32.328125 33.6875 34.8125 36.53125 
Q 39.546875 41.84375 41.421875 45.53125 
Q 43.3125 49.21875 43.3125 52.78125 
Q 43.3125 58.59375 39.234375 62.25 
Q 35.15625 65.921875 28.609375 65.921875 
Q 23.96875 65.921875 18.8125 64.3125 
Q 13.671875 62.703125 7.8125 59.421875 
L 7.8125 69.390625 
Q 13.765625 71.78125 18.9375 73 
Q 24.125 74.21875 28.421875 74.21875 
Q 39.75 74.21875 46.484375 68.546875 
Q 53.21875 62.890625 53.21875 53.421875 
Q 53.21875 48.921875 51.53125 44.890625 
Q 49.859375 40.875 45.40625 35.40625 
Q 44.1875 33.984375 37.640625 27.21875 
Q 31.109375 20.453125 19.1875 8.296875 
z
" id="DejaVuSans-50"/>
      </defs>
      <g transform="translate(365.003525 319.117813)scale(0.14 -0.14)">
       <use xlink:href="#DejaVuSans-50"/>
       <use x="63.623047" xlink:href="#DejaVuSans-48"/>
       <use x="127.246094" xlink:href="#DejaVuSans-48"/>
      </g>
     </g>
    </g>
    <g id="xtick_6">
     <g id="line2d_6"/>
     <g id="text_6">
      <!-- 250 -->
      <g transform="translate(444.444319 319.117813)scale(0.14 -0.14)">
       <use xlink:href="#DejaVuSans-50"/>
       <use x="63.623047" xlink:href="#DejaVuSans-53"/>
       <use x="127.246094" xlink:href="#DejaVuSans-48"/>
      </g>
     </g>
    </g>
    <g id="xtick_7">
     <g id="line2d_7"/>
     <g id="text_7">
      <!-- 300 -->
      <defs>
       <path d="M 40.578125 39.3125 
Q 47.65625 37.796875 51.625 33 
Q 55.609375 28.21875 55.609375 21.1875 
Q 55.609375 10.40625 48.1875 4.484375 
Q 40.765625 -1.421875 27.09375 -1.421875 
Q 22.515625 -1.421875 17.65625 -0.515625 
Q 12.796875 0.390625 7.625 2.203125 
L 7.625 11.71875 
Q 11.71875 9.328125 16.59375 8.109375 
Q 21.484375 6.890625 26.8125 6.890625 
Q 36.078125 6.890625 40.9375 10.546875 
Q 45.796875 14.203125 45.796875 21.1875 
Q 45.796875 27.640625 41.28125 31.265625 
Q 36.765625 34.90625 28.71875 34.90625 
L 20.21875 34.90625 
L 20.21875 43.015625 
L 29.109375 43.015625 
Q 36.375 43.015625 40.234375 45.921875 
Q 44.09375 48.828125 44.09375 54.296875 
Q 44.09375 59.90625 40.109375 62.90625 
Q 36.140625 65.921875 28.71875 65.921875 
Q 24.65625 65.921875 20.015625 65.03125 
Q 15.375 64.15625 9.8125 62.3125 
L 9.8125 71.09375 
Q 15.4375 72.65625 20.34375 73.4375 
Q 25.25 74.21875 29.59375 74.21875 
Q 40.828125 74.21875 47.359375 69.109375 
Q 53.90625 64.015625 53.90625 55.328125 
Q 53.90625 49.265625 50.4375 45.09375 
Q 46.96875 40.921875 40.578125 39.3125 
z
" id="DejaVuSans-51"/>
      </defs>
      <g transform="translate(523.885114 319.117813)scale(0.14 -0.14)">
       <use xlink:href="#DejaVuSans-51"/>
       <use x="63.623047" xlink:href="#DejaVuSans-48"/>
       <use x="127.246094" xlink:href="#DejaVuSans-48"/>
      </g>
     </g>
    </g>
    <g id="text_8">
     <!-- Epoch -->
     <defs>
      <path d="M 20.90625 62.59375 
L 20.90625 36.421875 
L 35.453125 36.421875 
Q 41.109375 36.421875 43.015625 38.140625 
Q 45.5625 40.375 45.84375 46.046875 
L 47.65625 46.046875 
L 47.65625 23 
L 45.84375 23 
Q 45.171875 27.828125 44.484375 29.203125 
Q 43.609375 30.90625 41.59375 31.875 
Q 39.59375 32.859375 35.453125 32.859375 
L 20.90625 32.859375 
L 20.90625 11.03125 
Q 20.90625 6.640625 21.296875 5.6875 
Q 21.6875 4.734375 22.65625 4.171875 
Q 23.640625 3.609375 26.375 3.609375 
L 37.59375 3.609375 
Q 43.21875 3.609375 45.75 4.390625 
Q 48.296875 5.171875 50.640625 7.46875 
Q 53.65625 10.5 56.84375 16.609375 
L 58.796875 16.609375 
L 53.078125 0 
L 2.046875 0 
L 2.046875 1.8125 
L 4.390625 1.8125 
Q 6.734375 1.8125 8.84375 2.9375 
Q 10.40625 3.71875 10.96875 5.28125 
Q 11.53125 6.84375 11.53125 11.671875 
L 11.53125 54.6875 
Q 11.53125 60.984375 10.25 62.453125 
Q 8.5 64.40625 4.390625 64.40625 
L 2.046875 64.40625 
L 2.046875 66.21875 
L 53.078125 66.21875 
L 53.8125 51.703125 
L 51.90625 51.703125 
Q 50.875 56.9375 49.625 58.890625 
Q 48.390625 60.84375 45.953125 61.859375 
Q 44 62.59375 39.0625 62.59375 
z
" id="TimesNewRomanPSMT-69"/>
      <path d="M -0.09375 40.28125 
L 13.671875 45.84375 
L 15.53125 45.84375 
L 15.53125 35.40625 
Q 19 41.3125 22.484375 43.671875 
Q 25.984375 46.046875 29.828125 46.046875 
Q 36.578125 46.046875 41.0625 40.765625 
Q 46.578125 34.328125 46.578125 23.96875 
Q 46.578125 12.40625 39.9375 4.828125 
Q 34.46875 -1.375 26.171875 -1.375 
Q 22.5625 -1.375 19.921875 -0.34375 
Q 17.96875 0.390625 15.53125 2.59375 
L 15.53125 -11.03125 
Q 15.53125 -15.625 16.09375 -16.859375 
Q 16.65625 -18.109375 18.046875 -18.84375 
Q 19.4375 -19.578125 23.09375 -19.578125 
L 23.09375 -21.390625 
L -0.34375 -21.390625 
L -0.34375 -19.578125 
L 0.875 -19.578125 
Q 3.5625 -19.625 5.46875 -18.5625 
Q 6.390625 -18.015625 6.90625 -16.8125 
Q 7.421875 -15.625 7.421875 -10.75 
L 7.421875 31.546875 
Q 7.421875 35.890625 7.03125 37.0625 
Q 6.640625 38.234375 5.78125 38.8125 
Q 4.9375 39.40625 3.46875 39.40625 
Q 2.296875 39.40625 0.484375 38.71875 
z
M 15.53125 32.515625 
L 15.53125 15.828125 
Q 15.53125 10.40625 15.96875 8.6875 
Q 16.65625 5.859375 19.3125 3.703125 
Q 21.96875 1.5625 26.03125 1.5625 
Q 30.90625 1.5625 33.9375 5.375 
Q 37.890625 10.359375 37.890625 19.390625 
Q 37.890625 29.640625 33.40625 35.15625 
Q 30.28125 38.96875 25.984375 38.96875 
Q 23.640625 38.96875 21.34375 37.796875 
Q 19.578125 36.921875 15.53125 32.515625 
z
" id="TimesNewRomanPSMT-112"/>
      <path d="M 25 46.046875 
Q 35.15625 46.046875 41.3125 38.328125 
Q 46.53125 31.734375 46.53125 23.1875 
Q 46.53125 17.1875 43.640625 11.03125 
Q 40.765625 4.890625 35.71875 1.75 
Q 30.671875 -1.375 24.46875 -1.375 
Q 14.359375 -1.375 8.40625 6.6875 
Q 3.375 13.484375 3.375 21.921875 
Q 3.375 28.078125 6.421875 34.15625 
Q 9.46875 40.234375 14.453125 43.140625 
Q 19.4375 46.046875 25 46.046875 
z
M 23.484375 42.875 
Q 20.90625 42.875 18.28125 41.328125 
Q 15.671875 39.796875 14.0625 35.9375 
Q 12.453125 32.078125 12.453125 26.03125 
Q 12.453125 16.265625 16.328125 9.171875 
Q 20.21875 2.09375 26.5625 2.09375 
Q 31.296875 2.09375 34.375 6 
Q 37.453125 9.90625 37.453125 19.4375 
Q 37.453125 31.34375 32.328125 38.1875 
Q 28.859375 42.875 23.484375 42.875 
z
" id="TimesNewRomanPSMT-111"/>
      <path d="M 41.109375 17 
Q 39.3125 8.15625 34.03125 3.390625 
Q 28.765625 -1.375 22.359375 -1.375 
Q 14.75 -1.375 9.078125 5.015625 
Q 3.421875 11.421875 3.421875 22.3125 
Q 3.421875 32.859375 9.6875 39.453125 
Q 15.96875 46.046875 24.75 46.046875 
Q 31.34375 46.046875 35.59375 42.546875 
Q 39.84375 39.0625 39.84375 35.296875 
Q 39.84375 33.453125 38.640625 32.296875 
Q 37.453125 31.15625 35.296875 31.15625 
Q 32.421875 31.15625 30.953125 33.015625 
Q 30.125 34.03125 29.859375 36.90625 
Q 29.59375 39.796875 27.875 41.3125 
Q 26.171875 42.78125 23.140625 42.78125 
Q 18.265625 42.78125 15.28125 39.15625 
Q 11.328125 34.375 11.328125 26.515625 
Q 11.328125 18.5 15.25 12.375 
Q 19.1875 6.25 25.875 6.25 
Q 30.671875 6.25 34.46875 9.515625 
Q 37.15625 11.765625 39.703125 17.671875 
z
" id="TimesNewRomanPSMT-99"/>
      <path d="M 16.265625 69.4375 
L 16.265625 36.71875 
Q 21.6875 42.671875 24.859375 44.359375 
Q 28.03125 46.046875 31.203125 46.046875 
Q 35.015625 46.046875 37.75 43.9375 
Q 40.484375 41.84375 41.796875 37.359375 
Q 42.71875 34.234375 42.71875 25.921875 
L 42.71875 10.109375 
Q 42.71875 5.859375 43.40625 4.296875 
Q 43.890625 3.125 45.0625 2.4375 
Q 46.234375 1.765625 49.359375 1.765625 
L 49.359375 0 
L 27.390625 0 
L 27.390625 1.765625 
L 28.421875 1.765625 
Q 31.546875 1.765625 32.765625 2.703125 
Q 33.984375 3.65625 34.46875 5.515625 
Q 34.625 6.296875 34.625 10.109375 
L 34.625 25.921875 
Q 34.625 33.25 33.859375 35.546875 
Q 33.109375 37.84375 31.4375 38.984375 
Q 29.78125 40.140625 27.4375 40.140625 
Q 25.046875 40.140625 22.453125 38.859375 
Q 19.875 37.59375 16.265625 33.734375 
L 16.265625 10.109375 
Q 16.265625 5.515625 16.765625 4.390625 
Q 17.28125 3.265625 18.671875 2.515625 
Q 20.0625 1.765625 23.484375 1.765625 
L 23.484375 0 
L 1.3125 0 
L 1.3125 1.765625 
Q 4.296875 1.765625 6 2.6875 
Q 6.984375 3.171875 7.5625 4.53125 
Q 8.15625 5.90625 8.15625 10.109375 
L 8.15625 50.59375 
Q 8.15625 58.25 7.78125 60 
Q 7.421875 61.765625 6.65625 62.390625 
Q 5.90625 63.03125 4.640625 63.03125 
Q 3.609375 63.03125 1.3125 62.25 
L 0.640625 63.96875 
L 14.015625 69.4375 
z
" id="TimesNewRomanPSMT-104"/>
     </defs>
     <g transform="translate(275.363125 339.916875)scale(0.2 -0.2)">
      <use xlink:href="#TimesNewRomanPSMT-69"/>
      <use x="61.083984" xlink:href="#TimesNewRomanPSMT-112"/>
      <use x="111.083984" xlink:href="#TimesNewRomanPSMT-111"/>
      <use x="161.083984" xlink:href="#TimesNewRomanPSMT-99"/>
      <use x="205.46875" xlink:href="#TimesNewRomanPSMT-104"/>
     </g>
    </g>
   </g>
   <g id="matplotlib.axis_2">
    <g id="ytick_1">
     <g id="line2d_8"/>
     <g id="text_9">
      <!-- 0.6 -->
      <defs>
       <path d="M 10.6875 12.40625 
L 21 12.40625 
L 21 0 
L 10.6875 0 
z
" id="DejaVuSans-46"/>
       <path d="M 33.015625 40.375 
Q 26.375 40.375 22.484375 35.828125 
Q 18.609375 31.296875 18.609375 23.390625 
Q 18.609375 15.53125 22.484375 10.953125 
Q 26.375 6.390625 33.015625 6.390625 
Q 39.65625 6.390625 43.53125 10.953125 
Q 47.40625 15.53125 47.40625 23.390625 
Q 47.40625 31.296875 43.53125 35.828125 
Q 39.65625 40.375 33.015625 40.375 
z
M 52.59375 71.296875 
L 52.59375 62.3125 
Q 48.875 64.0625 45.09375 64.984375 
Q 41.3125 65.921875 37.59375 65.921875 
Q 27.828125 65.921875 22.671875 59.328125 
Q 17.53125 52.734375 16.796875 39.40625 
Q 19.671875 43.65625 24.015625 45.921875 
Q 28.375 48.1875 33.59375 48.1875 
Q 44.578125 48.1875 50.953125 41.515625 
Q 57.328125 34.859375 57.328125 23.390625 
Q 57.328125 12.15625 50.6875 5.359375 
Q 44.046875 -1.421875 33.015625 -1.421875 
Q 20.359375 -1.421875 13.671875 8.265625 
Q 6.984375 17.96875 6.984375 36.375 
Q 6.984375 53.65625 15.1875 63.9375 
Q 23.390625 74.21875 37.203125 74.21875 
Q 40.921875 74.21875 44.703125 73.484375 
Q 48.484375 72.75 52.59375 71.296875 
z
" id="DejaVuSans-54"/>
      </defs>
      <g transform="translate(15.175625 280.654134)scale(0.14 -0.14)">
       <use xlink:href="#DejaVuSans-48"/>
       <use x="63.623047" xlink:href="#DejaVuSans-46"/>
       <use x="95.410156" xlink:href="#DejaVuSans-54"/>
      </g>
     </g>
    </g>
    <g id="ytick_2">
     <g id="line2d_9"/>
     <g id="text_10">
      <!-- 0.8 -->
      <defs>
       <path d="M 31.78125 34.625 
Q 24.75 34.625 20.71875 30.859375 
Q 16.703125 27.09375 16.703125 20.515625 
Q 16.703125 13.921875 20.71875 10.15625 
Q 24.75 6.390625 31.78125 6.390625 
Q 38.8125 6.390625 42.859375 10.171875 
Q 46.921875 13.96875 46.921875 20.515625 
Q 46.921875 27.09375 42.890625 30.859375 
Q 38.875 34.625 31.78125 34.625 
z
M 21.921875 38.8125 
Q 15.578125 40.375 12.03125 44.71875 
Q 8.5 49.078125 8.5 55.328125 
Q 8.5 64.0625 14.71875 69.140625 
Q 20.953125 74.21875 31.78125 74.21875 
Q 42.671875 74.21875 48.875 69.140625 
Q 55.078125 64.0625 55.078125 55.328125 
Q 55.078125 49.078125 51.53125 44.71875 
Q 48 40.375 41.703125 38.8125 
Q 48.828125 37.15625 52.796875 32.3125 
Q 56.78125 27.484375 56.78125 20.515625 
Q 56.78125 9.90625 50.3125 4.234375 
Q 43.84375 -1.421875 31.78125 -1.421875 
Q 19.734375 -1.421875 13.25 4.234375 
Q 6.78125 9.90625 6.78125 20.515625 
Q 6.78125 27.484375 10.78125 32.3125 
Q 14.796875 37.15625 21.921875 38.8125 
z
M 18.3125 54.390625 
Q 18.3125 48.734375 21.84375 45.5625 
Q 25.390625 42.390625 31.78125 42.390625 
Q 38.140625 42.390625 41.71875 45.5625 
Q 45.3125 48.734375 45.3125 54.390625 
Q 45.3125 60.0625 41.71875 63.234375 
Q 38.140625 66.40625 31.78125 66.40625 
Q 25.390625 66.40625 21.84375 63.234375 
Q 18.3125 60.0625 18.3125 54.390625 
z
" id="DejaVuSans-56"/>
      </defs>
      <g transform="translate(15.175625 243.223865)scale(0.14 -0.14)">
       <use xlink:href="#DejaVuSans-48"/>
       <use x="63.623047" xlink:href="#DejaVuSans-46"/>
       <use x="95.410156" xlink:href="#DejaVuSans-56"/>
      </g>
     </g>
    </g>
    <g id="ytick_3">
     <g id="line2d_10"/>
     <g id="text_11">
      <!-- 1.0 -->
      <g transform="translate(15.175625 205.793596)scale(0.14 -0.14)">
       <use xlink:href="#DejaVuSans-49"/>
       <use x="63.623047" xlink:href="#DejaVuSans-46"/>
       <use x="95.410156" xlink:href="#DejaVuSans-48"/>
      </g>
     </g>
    </g>
    <g id="ytick_4">
     <g id="line2d_11"/>
     <g id="text_12">
      <!-- 1.2 -->
      <g transform="translate(15.175625 168.363328)scale(0.14 -0.14)">
       <use xlink:href="#DejaVuSans-49"/>
       <use x="63.623047" xlink:href="#DejaVuSans-46"/>
       <use x="95.410156" xlink:href="#DejaVuSans-50"/>
      </g>
     </g>
    </g>
    <g id="ytick_5">
     <g id="line2d_12"/>
     <g id="text_13">
      <!-- 1.4 -->
      <defs>
       <path d="M 37.796875 64.3125 
L 12.890625 25.390625 
L 37.796875 25.390625 
z
M 35.203125 72.90625 
L 47.609375 72.90625 
L 47.609375 25.390625 
L 58.015625 25.390625 
L 58.015625 17.1875 
L 47.609375 17.1875 
L 47.609375 0 
L 37.796875 0 
L 37.796875 17.1875 
L 4.890625 17.1875 
L 4.890625 26.703125 
z
" id="DejaVuSans-52"/>
      </defs>
      <g transform="translate(15.175625 130.933059)scale(0.14 -0.14)">
       <use xlink:href="#DejaVuSans-49"/>
       <use x="63.623047" xlink:href="#DejaVuSans-46"/>
       <use x="95.410156" xlink:href="#DejaVuSans-52"/>
      </g>
     </g>
    </g>
    <g id="ytick_6">
     <g id="line2d_13"/>
     <g id="text_14">
      <!-- 1.6 -->
      <g transform="translate(15.175625 93.502791)scale(0.14 -0.14)">
       <use xlink:href="#DejaVuSans-49"/>
       <use x="63.623047" xlink:href="#DejaVuSans-46"/>
       <use x="95.410156" xlink:href="#DejaVuSans-54"/>
      </g>
     </g>
    </g>
    <g id="ytick_7">
     <g id="line2d_14"/>
     <g id="text_15">
      <!-- 1.8 -->
      <g transform="translate(15.175625 56.072522)scale(0.14 -0.14)">
       <use xlink:href="#DejaVuSans-49"/>
       <use x="63.623047" xlink:href="#DejaVuSans-46"/>
       <use x="95.410156" xlink:href="#DejaVuSans-56"/>
      </g>
     </g>
    </g>
   </g>
   <g id="line2d_15">
    <path clip-path="url(#p09bde8aa11)" d="M 64.573636 28.295455 
L 68.545676 28.295455 
L 72.517716 28.295455 
L 76.489756 28.295455 
L 80.461795 28.295455 
L 84.433835 28.295455 
L 88.405875 28.295455 
L 92.377914 28.295455 
L 96.349954 52.250826 
L 100.321994 52.250826 
L 104.294034 52.250826 
L 108.266073 52.250826 
L 112.238113 52.250826 
L 116.210153 52.250826 
L 120.182193 52.250826 
L 124.154232 52.250826 
L 128.126272 52.250826 
L 132.098312 52.250826 
L 136.070351 52.250826 
L 140.042391 52.250826 
L 144.014431 52.250826 
L 147.986471 52.250826 
L 151.95851 76.206198 
L 155.93055 76.206198 
L 159.90259 76.206198 
L 163.874629 76.206198 
L 167.846669 76.206198 
L 171.818709 76.206198 
L 175.790749 76.206198 
L 179.762788 76.206198 
L 183.734828 76.206198 
L 187.706868 76.206198 
L 191.678908 76.206198 
L 195.650947 76.206198 
L 199.622987 76.206198 
L 203.595027 76.206198 
L 207.567066 100.16157 
L 211.539106 100.16157 
L 215.511146 100.16157 
L 219.483186 100.16157 
L 223.455225 100.16157 
L 227.427265 100.16157 
L 231.399305 100.16157 
L 235.371345 100.16157 
L 239.343384 100.16157 
L 243.315424 100.16157 
L 247.287464 100.16157 
L 251.259503 100.16157 
L 255.231543 100.16157 
L 259.203583 124.116942 
L 263.175623 124.116942 
L 267.147662 124.116942 
L 271.119702 124.116942 
L 275.091742 124.116942 
L 279.063782 124.116942 
L 283.035821 124.116942 
L 287.007861 124.116942 
L 290.979901 124.116942 
L 294.95194 124.116942 
L 298.92398 124.116942 
L 302.89602 124.116942 
L 306.86806 148.072314 
L 310.840099 148.072314 
L 314.812139 148.072314 
L 318.784179 148.072314 
L 322.756218 148.072314 
L 326.728258 148.072314 
L 330.700298 148.072314 
L 334.672338 148.072314 
L 338.644377 148.072314 
L 342.616417 148.072314 
L 346.588457 148.072314 
L 350.560497 148.072314 
L 354.532536 148.072314 
L 358.504576 148.072314 
L 362.476616 148.072314 
L 366.448655 148.072314 
L 370.420695 148.072314 
L 374.392735 148.072314 
L 378.364775 148.072314 
L 382.336814 148.072314 
L 386.308854 148.072314 
L 390.280894 148.072314 
L 394.252934 148.072314 
L 398.224973 148.072314 
L 402.197013 148.072314 
L 406.169053 148.072314 
L 410.141092 148.072314 
L 414.113132 148.072314 
L 418.085172 148.072314 
L 422.057212 148.072314 
L 426.029251 148.072314 
L 430.001291 148.072314 
L 433.973331 148.072314 
L 437.945371 172.027686 
L 441.91741 148.072314 
L 445.88945 172.027686 
L 449.86149 172.027686 
L 453.833529 172.027686 
L 457.805569 172.027686 
L 461.777609 172.027686 
L 465.749649 148.072314 
L 469.721688 172.027686 
L 473.693728 172.027686 
L 477.665768 172.027686 
L 481.637807 172.027686 
L 485.609847 172.027686 
L 489.581887 172.027686 
L 493.553927 172.027686 
L 497.525966 172.027686 
L 501.498006 172.027686 
L 505.470046 172.027686 
L 509.442086 172.027686 
L 513.414125 172.027686 
L 517.386165 172.027686 
L 521.358205 172.027686 
L 525.330244 172.027686 
L 529.302284 172.027686 
L 533.274324 172.027686 
L 537.246364 172.027686 
" style="fill:none;stroke:#1f77b4;stroke-width:2;"/>
    <defs>
     <path d="M -0.49999 0.49999 
L 0.50001 0.49999 
L 0.50001 -0.50001 
L -0.49999 -0.50001 
z
" id="ma7435f35ad"/>
    </defs>
    <g clip-path="url(#p09bde8aa11)">
     <use style="fill:#1f77b4;" x="64.573636" xlink:href="#ma7435f35ad" y="28.295455"/>
     <use style="fill:#1f77b4;" x="68.545676" xlink:href="#ma7435f35ad" y="28.295455"/>
     <use style="fill:#1f77b4;" x="72.517716" xlink:href="#ma7435f35ad" y="28.295455"/>
     <use style="fill:#1f77b4;" x="76.489756" xlink:href="#ma7435f35ad" y="28.295455"/>
     <use style="fill:#1f77b4;" x="80.461795" xlink:href="#ma7435f35ad" y="28.295455"/>
     <use style="fill:#1f77b4;" x="84.433835" xlink:href="#ma7435f35ad" y="28.295455"/>
     <use style="fill:#1f77b4;" x="88.405875" xlink:href="#ma7435f35ad" y="28.295455"/>
     <use style="fill:#1f77b4;" x="92.377914" xlink:href="#ma7435f35ad" y="28.295455"/>
     <use style="fill:#1f77b4;" x="96.349954" xlink:href="#ma7435f35ad" y="52.250826"/>
     <use style="fill:#1f77b4;" x="100.321994" xlink:href="#ma7435f35ad" y="52.250826"/>
     <use style="fill:#1f77b4;" x="104.294034" xlink:href="#ma7435f35ad" y="52.250826"/>
     <use style="fill:#1f77b4;" x="108.266073" xlink:href="#ma7435f35ad" y="52.250826"/>
     <use style="fill:#1f77b4;" x="112.238113" xlink:href="#ma7435f35ad" y="52.250826"/>
     <use style="fill:#1f77b4;" x="116.210153" xlink:href="#ma7435f35ad" y="52.250826"/>
     <use style="fill:#1f77b4;" x="120.182193" xlink:href="#ma7435f35ad" y="52.250826"/>
     <use style="fill:#1f77b4;" x="124.154232" xlink:href="#ma7435f35ad" y="52.250826"/>
     <use style="fill:#1f77b4;" x="128.126272" xlink:href="#ma7435f35ad" y="52.250826"/>
     <use style="fill:#1f77b4;" x="132.098312" xlink:href="#ma7435f35ad" y="52.250826"/>
     <use style="fill:#1f77b4;" x="136.070351" xlink:href="#ma7435f35ad" y="52.250826"/>
     <use style="fill:#1f77b4;" x="140.042391" xlink:href="#ma7435f35ad" y="52.250826"/>
     <use style="fill:#1f77b4;" x="144.014431" xlink:href="#ma7435f35ad" y="52.250826"/>
     <use style="fill:#1f77b4;" x="147.986471" xlink:href="#ma7435f35ad" y="52.250826"/>
     <use style="fill:#1f77b4;" x="151.95851" xlink:href="#ma7435f35ad" y="76.206198"/>
     <use style="fill:#1f77b4;" x="155.93055" xlink:href="#ma7435f35ad" y="76.206198"/>
     <use style="fill:#1f77b4;" x="159.90259" xlink:href="#ma7435f35ad" y="76.206198"/>
     <use style="fill:#1f77b4;" x="163.874629" xlink:href="#ma7435f35ad" y="76.206198"/>
     <use style="fill:#1f77b4;" x="167.846669" xlink:href="#ma7435f35ad" y="76.206198"/>
     <use style="fill:#1f77b4;" x="171.818709" xlink:href="#ma7435f35ad" y="76.206198"/>
     <use style="fill:#1f77b4;" x="175.790749" xlink:href="#ma7435f35ad" y="76.206198"/>
     <use style="fill:#1f77b4;" x="179.762788" xlink:href="#ma7435f35ad" y="76.206198"/>
     <use style="fill:#1f77b4;" x="183.734828" xlink:href="#ma7435f35ad" y="76.206198"/>
     <use style="fill:#1f77b4;" x="187.706868" xlink:href="#ma7435f35ad" y="76.206198"/>
     <use style="fill:#1f77b4;" x="191.678908" xlink:href="#ma7435f35ad" y="76.206198"/>
     <use style="fill:#1f77b4;" x="195.650947" xlink:href="#ma7435f35ad" y="76.206198"/>
     <use style="fill:#1f77b4;" x="199.622987" xlink:href="#ma7435f35ad" y="76.206198"/>
     <use style="fill:#1f77b4;" x="203.595027" xlink:href="#ma7435f35ad" y="76.206198"/>
     <use style="fill:#1f77b4;" x="207.567066" xlink:href="#ma7435f35ad" y="100.16157"/>
     <use style="fill:#1f77b4;" x="211.539106" xlink:href="#ma7435f35ad" y="100.16157"/>
     <use style="fill:#1f77b4;" x="215.511146" xlink:href="#ma7435f35ad" y="100.16157"/>
     <use style="fill:#1f77b4;" x="219.483186" xlink:href="#ma7435f35ad" y="100.16157"/>
     <use style="fill:#1f77b4;" x="223.455225" xlink:href="#ma7435f35ad" y="100.16157"/>
     <use style="fill:#1f77b4;" x="227.427265" xlink:href="#ma7435f35ad" y="100.16157"/>
     <use style="fill:#1f77b4;" x="231.399305" xlink:href="#ma7435f35ad" y="100.16157"/>
     <use style="fill:#1f77b4;" x="235.371345" xlink:href="#ma7435f35ad" y="100.16157"/>
     <use style="fill:#1f77b4;" x="239.343384" xlink:href="#ma7435f35ad" y="100.16157"/>
     <use style="fill:#1f77b4;" x="243.315424" xlink:href="#ma7435f35ad" y="100.16157"/>
     <use style="fill:#1f77b4;" x="247.287464" xlink:href="#ma7435f35ad" y="100.16157"/>
     <use style="fill:#1f77b4;" x="251.259503" xlink:href="#ma7435f35ad" y="100.16157"/>
     <use style="fill:#1f77b4;" x="255.231543" xlink:href="#ma7435f35ad" y="100.16157"/>
     <use style="fill:#1f77b4;" x="259.203583" xlink:href="#ma7435f35ad" y="124.116942"/>
     <use style="fill:#1f77b4;" x="263.175623" xlink:href="#ma7435f35ad" y="124.116942"/>
     <use style="fill:#1f77b4;" x="267.147662" xlink:href="#ma7435f35ad" y="124.116942"/>
     <use style="fill:#1f77b4;" x="271.119702" xlink:href="#ma7435f35ad" y="124.116942"/>
     <use style="fill:#1f77b4;" x="275.091742" xlink:href="#ma7435f35ad" y="124.116942"/>
     <use style="fill:#1f77b4;" x="279.063782" xlink:href="#ma7435f35ad" y="124.116942"/>
     <use style="fill:#1f77b4;" x="283.035821" xlink:href="#ma7435f35ad" y="124.116942"/>
     <use style="fill:#1f77b4;" x="287.007861" xlink:href="#ma7435f35ad" y="124.116942"/>
     <use style="fill:#1f77b4;" x="290.979901" xlink:href="#ma7435f35ad" y="124.116942"/>
     <use style="fill:#1f77b4;" x="294.95194" xlink:href="#ma7435f35ad" y="124.116942"/>
     <use style="fill:#1f77b4;" x="298.92398" xlink:href="#ma7435f35ad" y="124.116942"/>
     <use style="fill:#1f77b4;" x="302.89602" xlink:href="#ma7435f35ad" y="124.116942"/>
     <use style="fill:#1f77b4;" x="306.86806" xlink:href="#ma7435f35ad" y="148.072314"/>
     <use style="fill:#1f77b4;" x="310.840099" xlink:href="#ma7435f35ad" y="148.072314"/>
     <use style="fill:#1f77b4;" x="314.812139" xlink:href="#ma7435f35ad" y="148.072314"/>
     <use style="fill:#1f77b4;" x="318.784179" xlink:href="#ma7435f35ad" y="148.072314"/>
     <use style="fill:#1f77b4;" x="322.756218" xlink:href="#ma7435f35ad" y="148.072314"/>
     <use style="fill:#1f77b4;" x="326.728258" xlink:href="#ma7435f35ad" y="148.072314"/>
     <use style="fill:#1f77b4;" x="330.700298" xlink:href="#ma7435f35ad" y="148.072314"/>
     <use style="fill:#1f77b4;" x="334.672338" xlink:href="#ma7435f35ad" y="148.072314"/>
     <use style="fill:#1f77b4;" x="338.644377" xlink:href="#ma7435f35ad" y="148.072314"/>
     <use style="fill:#1f77b4;" x="342.616417" xlink:href="#ma7435f35ad" y="148.072314"/>
     <use style="fill:#1f77b4;" x="346.588457" xlink:href="#ma7435f35ad" y="148.072314"/>
     <use style="fill:#1f77b4;" x="350.560497" xlink:href="#ma7435f35ad" y="148.072314"/>
     <use style="fill:#1f77b4;" x="354.532536" xlink:href="#ma7435f35ad" y="148.072314"/>
     <use style="fill:#1f77b4;" x="358.504576" xlink:href="#ma7435f35ad" y="148.072314"/>
     <use style="fill:#1f77b4;" x="362.476616" xlink:href="#ma7435f35ad" y="148.072314"/>
     <use style="fill:#1f77b4;" x="366.448655" xlink:href="#ma7435f35ad" y="148.072314"/>
     <use style="fill:#1f77b4;" x="370.420695" xlink:href="#ma7435f35ad" y="148.072314"/>
     <use style="fill:#1f77b4;" x="374.392735" xlink:href="#ma7435f35ad" y="148.072314"/>
     <use style="fill:#1f77b4;" x="378.364775" xlink:href="#ma7435f35ad" y="148.072314"/>
     <use style="fill:#1f77b4;" x="382.336814" xlink:href="#ma7435f35ad" y="148.072314"/>
     <use style="fill:#1f77b4;" x="386.308854" xlink:href="#ma7435f35ad" y="148.072314"/>
     <use style="fill:#1f77b4;" x="390.280894" xlink:href="#ma7435f35ad" y="148.072314"/>
     <use style="fill:#1f77b4;" x="394.252934" xlink:href="#ma7435f35ad" y="148.072314"/>
     <use style="fill:#1f77b4;" x="398.224973" xlink:href="#ma7435f35ad" y="148.072314"/>
     <use style="fill:#1f77b4;" x="402.197013" xlink:href="#ma7435f35ad" y="148.072314"/>
     <use style="fill:#1f77b4;" x="406.169053" xlink:href="#ma7435f35ad" y="148.072314"/>
     <use style="fill:#1f77b4;" x="410.141092" xlink:href="#ma7435f35ad" y="148.072314"/>
     <use style="fill:#1f77b4;" x="414.113132" xlink:href="#ma7435f35ad" y="148.072314"/>
     <use style="fill:#1f77b4;" x="418.085172" xlink:href="#ma7435f35ad" y="148.072314"/>
     <use style="fill:#1f77b4;" x="422.057212" xlink:href="#ma7435f35ad" y="148.072314"/>
     <use style="fill:#1f77b4;" x="426.029251" xlink:href="#ma7435f35ad" y="148.072314"/>
     <use style="fill:#1f77b4;" x="430.001291" xlink:href="#ma7435f35ad" y="148.072314"/>
     <use style="fill:#1f77b4;" x="433.973331" xlink:href="#ma7435f35ad" y="148.072314"/>
     <use style="fill:#1f77b4;" x="437.945371" xlink:href="#ma7435f35ad" y="172.027686"/>
     <use style="fill:#1f77b4;" x="441.91741" xlink:href="#ma7435f35ad" y="148.072314"/>
     <use style="fill:#1f77b4;" x="445.88945" xlink:href="#ma7435f35ad" y="172.027686"/>
     <use style="fill:#1f77b4;" x="449.86149" xlink:href="#ma7435f35ad" y="172.027686"/>
     <use style="fill:#1f77b4;" x="453.833529" xlink:href="#ma7435f35ad" y="172.027686"/>
     <use style="fill:#1f77b4;" x="457.805569" xlink:href="#ma7435f35ad" y="172.027686"/>
     <use style="fill:#1f77b4;" x="461.777609" xlink:href="#ma7435f35ad" y="172.027686"/>
     <use style="fill:#1f77b4;" x="465.749649" xlink:href="#ma7435f35ad" y="148.072314"/>
     <use style="fill:#1f77b4;" x="469.721688" xlink:href="#ma7435f35ad" y="172.027686"/>
     <use style="fill:#1f77b4;" x="473.693728" xlink:href="#ma7435f35ad" y="172.027686"/>
     <use style="fill:#1f77b4;" x="477.665768" xlink:href="#ma7435f35ad" y="172.027686"/>
     <use style="fill:#1f77b4;" x="481.637807" xlink:href="#ma7435f35ad" y="172.027686"/>
     <use style="fill:#1f77b4;" x="485.609847" xlink:href="#ma7435f35ad" y="172.027686"/>
     <use style="fill:#1f77b4;" x="489.581887" xlink:href="#ma7435f35ad" y="172.027686"/>
     <use style="fill:#1f77b4;" x="493.553927" xlink:href="#ma7435f35ad" y="172.027686"/>
     <use style="fill:#1f77b4;" x="497.525966" xlink:href="#ma7435f35ad" y="172.027686"/>
     <use style="fill:#1f77b4;" x="501.498006" xlink:href="#ma7435f35ad" y="172.027686"/>
     <use style="fill:#1f77b4;" x="505.470046" xlink:href="#ma7435f35ad" y="172.027686"/>
     <use style="fill:#1f77b4;" x="509.442086" xlink:href="#ma7435f35ad" y="172.027686"/>
     <use style="fill:#1f77b4;" x="513.414125" xlink:href="#ma7435f35ad" y="172.027686"/>
     <use style="fill:#1f77b4;" x="517.386165" xlink:href="#ma7435f35ad" y="172.027686"/>
     <use style="fill:#1f77b4;" x="521.358205" xlink:href="#ma7435f35ad" y="172.027686"/>
     <use style="fill:#1f77b4;" x="525.330244" xlink:href="#ma7435f35ad" y="172.027686"/>
     <use style="fill:#1f77b4;" x="529.302284" xlink:href="#ma7435f35ad" y="172.027686"/>
     <use style="fill:#1f77b4;" x="533.274324" xlink:href="#ma7435f35ad" y="172.027686"/>
     <use style="fill:#1f77b4;" x="537.246364" xlink:href="#ma7435f35ad" y="172.027686"/>
    </g>
   </g>
   <g id="line2d_16">
    <path clip-path="url(#p09bde8aa11)" d="M 64.573636 28.295455 
L 68.545676 28.295455 
L 72.517716 28.295455 
L 76.489756 28.295455 
L 80.461795 28.295455 
L 84.433835 52.250826 
L 88.405875 52.250826 
L 92.377914 52.250826 
L 96.349954 52.250826 
L 100.321994 52.250826 
L 104.294034 52.250826 
L 108.266073 52.250826 
L 112.238113 52.250826 
L 116.210153 52.250826 
L 120.182193 52.250826 
L 124.154232 76.206198 
L 128.126272 76.206198 
L 132.098312 76.206198 
L 136.070351 76.206198 
L 140.042391 76.206198 
L 144.014431 76.206198 
L 147.986471 76.206198 
L 151.95851 76.206198 
L 155.93055 76.206198 
L 159.90259 100.16157 
L 163.874629 100.16157 
L 167.846669 100.16157 
L 171.818709 100.16157 
L 175.790749 100.16157 
L 179.762788 100.16157 
L 183.734828 100.16157 
L 187.706868 100.16157 
L 191.678908 124.116942 
L 195.650947 124.116942 
L 199.622987 124.116942 
L 203.595027 124.116942 
L 207.567066 124.116942 
L 211.539106 124.116942 
L 215.511146 124.116942 
L 219.483186 124.116942 
L 223.455225 148.072314 
L 227.427265 148.072314 
L 231.399305 148.072314 
L 235.371345 148.072314 
L 239.343384 148.072314 
L 243.315424 148.072314 
L 247.287464 148.072314 
L 251.259503 148.072314 
L 255.231543 172.027686 
L 259.203583 172.027686 
L 263.175623 172.027686 
L 267.147662 172.027686 
L 271.119702 172.027686 
L 275.091742 172.027686 
L 279.063782 172.027686 
L 283.035821 172.027686 
L 287.007861 172.027686 
L 290.979901 172.027686 
L 294.95194 172.027686 
L 298.92398 195.983058 
L 302.89602 195.983058 
L 306.86806 195.983058 
L 310.840099 195.983058 
L 314.812139 195.983058 
L 318.784179 195.983058 
L 322.756218 195.983058 
L 326.728258 195.983058 
L 330.700298 195.983058 
L 334.672338 195.983058 
L 338.644377 195.983058 
L 342.616417 195.983058 
L 346.588457 195.983058 
L 350.560497 219.93843 
L 354.532536 219.93843 
L 358.504576 195.983058 
L 362.476616 219.93843 
L 366.448655 219.93843 
L 370.420695 219.93843 
L 374.392735 219.93843 
L 378.364775 219.93843 
L 382.336814 219.93843 
L 386.308854 219.93843 
L 390.280894 219.93843 
L 394.252934 219.93843 
L 398.224973 219.93843 
L 402.197013 219.93843 
L 406.169053 219.93843 
L 410.141092 219.93843 
L 414.113132 219.93843 
L 418.085172 219.93843 
L 422.057212 219.93843 
L 426.029251 219.93843 
L 430.001291 219.93843 
L 433.973331 219.93843 
L 437.945371 219.93843 
L 441.91741 219.93843 
L 445.88945 219.93843 
L 449.86149 219.93843 
L 453.833529 219.93843 
L 457.805569 219.93843 
L 461.777609 219.93843 
L 465.749649 219.93843 
L 469.721688 219.93843 
L 473.693728 219.93843 
L 477.665768 219.93843 
L 481.637807 219.93843 
L 485.609847 219.93843 
L 489.581887 219.93843 
L 493.553927 219.93843 
L 497.525966 219.93843 
L 501.498006 219.93843 
L 505.470046 219.93843 
L 509.442086 219.93843 
L 513.414125 219.93843 
L 517.386165 219.93843 
L 521.358205 219.93843 
L 525.330244 219.93843 
L 529.302284 219.93843 
L 533.274324 219.93843 
L 537.246364 219.93843 
" style="fill:none;stroke:#ff7f0e;stroke-width:2;"/>
    <defs>
     <path d="M -0.49999 0.49999 
L 0.50001 0.49999 
L 0.50001 -0.50001 
L -0.49999 -0.50001 
z
" id="mcb3005190c"/>
    </defs>
    <g clip-path="url(#p09bde8aa11)">
     <use style="fill:#ff7f0e;" x="64.573636" xlink:href="#mcb3005190c" y="28.295455"/>
     <use style="fill:#ff7f0e;" x="68.545676" xlink:href="#mcb3005190c" y="28.295455"/>
     <use style="fill:#ff7f0e;" x="72.517716" xlink:href="#mcb3005190c" y="28.295455"/>
     <use style="fill:#ff7f0e;" x="76.489756" xlink:href="#mcb3005190c" y="28.295455"/>
     <use style="fill:#ff7f0e;" x="80.461795" xlink:href="#mcb3005190c" y="28.295455"/>
     <use style="fill:#ff7f0e;" x="84.433835" xlink:href="#mcb3005190c" y="52.250826"/>
     <use style="fill:#ff7f0e;" x="88.405875" xlink:href="#mcb3005190c" y="52.250826"/>
     <use style="fill:#ff7f0e;" x="92.377914" xlink:href="#mcb3005190c" y="52.250826"/>
     <use style="fill:#ff7f0e;" x="96.349954" xlink:href="#mcb3005190c" y="52.250826"/>
     <use style="fill:#ff7f0e;" x="100.321994" xlink:href="#mcb3005190c" y="52.250826"/>
     <use style="fill:#ff7f0e;" x="104.294034" xlink:href="#mcb3005190c" y="52.250826"/>
     <use style="fill:#ff7f0e;" x="108.266073" xlink:href="#mcb3005190c" y="52.250826"/>
     <use style="fill:#ff7f0e;" x="112.238113" xlink:href="#mcb3005190c" y="52.250826"/>
     <use style="fill:#ff7f0e;" x="116.210153" xlink:href="#mcb3005190c" y="52.250826"/>
     <use style="fill:#ff7f0e;" x="120.182193" xlink:href="#mcb3005190c" y="52.250826"/>
     <use style="fill:#ff7f0e;" x="124.154232" xlink:href="#mcb3005190c" y="76.206198"/>
     <use style="fill:#ff7f0e;" x="128.126272" xlink:href="#mcb3005190c" y="76.206198"/>
     <use style="fill:#ff7f0e;" x="132.098312" xlink:href="#mcb3005190c" y="76.206198"/>
     <use style="fill:#ff7f0e;" x="136.070351" xlink:href="#mcb3005190c" y="76.206198"/>
     <use style="fill:#ff7f0e;" x="140.042391" xlink:href="#mcb3005190c" y="76.206198"/>
     <use style="fill:#ff7f0e;" x="144.014431" xlink:href="#mcb3005190c" y="76.206198"/>
     <use style="fill:#ff7f0e;" x="147.986471" xlink:href="#mcb3005190c" y="76.206198"/>
     <use style="fill:#ff7f0e;" x="151.95851" xlink:href="#mcb3005190c" y="76.206198"/>
     <use style="fill:#ff7f0e;" x="155.93055" xlink:href="#mcb3005190c" y="76.206198"/>
     <use style="fill:#ff7f0e;" x="159.90259" xlink:href="#mcb3005190c" y="100.16157"/>
     <use style="fill:#ff7f0e;" x="163.874629" xlink:href="#mcb3005190c" y="100.16157"/>
     <use style="fill:#ff7f0e;" x="167.846669" xlink:href="#mcb3005190c" y="100.16157"/>
     <use style="fill:#ff7f0e;" x="171.818709" xlink:href="#mcb3005190c" y="100.16157"/>
     <use style="fill:#ff7f0e;" x="175.790749" xlink:href="#mcb3005190c" y="100.16157"/>
     <use style="fill:#ff7f0e;" x="179.762788" xlink:href="#mcb3005190c" y="100.16157"/>
     <use style="fill:#ff7f0e;" x="183.734828" xlink:href="#mcb3005190c" y="100.16157"/>
     <use style="fill:#ff7f0e;" x="187.706868" xlink:href="#mcb3005190c" y="100.16157"/>
     <use style="fill:#ff7f0e;" x="191.678908" xlink:href="#mcb3005190c" y="124.116942"/>
     <use style="fill:#ff7f0e;" x="195.650947" xlink:href="#mcb3005190c" y="124.116942"/>
     <use style="fill:#ff7f0e;" x="199.622987" xlink:href="#mcb3005190c" y="124.116942"/>
     <use style="fill:#ff7f0e;" x="203.595027" xlink:href="#mcb3005190c" y="124.116942"/>
     <use style="fill:#ff7f0e;" x="207.567066" xlink:href="#mcb3005190c" y="124.116942"/>
     <use style="fill:#ff7f0e;" x="211.539106" xlink:href="#mcb3005190c" y="124.116942"/>
     <use style="fill:#ff7f0e;" x="215.511146" xlink:href="#mcb3005190c" y="124.116942"/>
     <use style="fill:#ff7f0e;" x="219.483186" xlink:href="#mcb3005190c" y="124.116942"/>
     <use style="fill:#ff7f0e;" x="223.455225" xlink:href="#mcb3005190c" y="148.072314"/>
     <use style="fill:#ff7f0e;" x="227.427265" xlink:href="#mcb3005190c" y="148.072314"/>
     <use style="fill:#ff7f0e;" x="231.399305" xlink:href="#mcb3005190c" y="148.072314"/>
     <use style="fill:#ff7f0e;" x="235.371345" xlink:href="#mcb3005190c" y="148.072314"/>
     <use style="fill:#ff7f0e;" x="239.343384" xlink:href="#mcb3005190c" y="148.072314"/>
     <use style="fill:#ff7f0e;" x="243.315424" xlink:href="#mcb3005190c" y="148.072314"/>
     <use style="fill:#ff7f0e;" x="247.287464" xlink:href="#mcb3005190c" y="148.072314"/>
     <use style="fill:#ff7f0e;" x="251.259503" xlink:href="#mcb3005190c" y="148.072314"/>
     <use style="fill:#ff7f0e;" x="255.231543" xlink:href="#mcb3005190c" y="172.027686"/>
     <use style="fill:#ff7f0e;" x="259.203583" xlink:href="#mcb3005190c" y="172.027686"/>
     <use style="fill:#ff7f0e;" x="263.175623" xlink:href="#mcb3005190c" y="172.027686"/>
     <use style="fill:#ff7f0e;" x="267.147662" xlink:href="#mcb3005190c" y="172.027686"/>
     <use style="fill:#ff7f0e;" x="271.119702" xlink:href="#mcb3005190c" y="172.027686"/>
     <use style="fill:#ff7f0e;" x="275.091742" xlink:href="#mcb3005190c" y="172.027686"/>
     <use style="fill:#ff7f0e;" x="279.063782" xlink:href="#mcb3005190c" y="172.027686"/>
     <use style="fill:#ff7f0e;" x="283.035821" xlink:href="#mcb3005190c" y="172.027686"/>
     <use style="fill:#ff7f0e;" x="287.007861" xlink:href="#mcb3005190c" y="172.027686"/>
     <use style="fill:#ff7f0e;" x="290.979901" xlink:href="#mcb3005190c" y="172.027686"/>
     <use style="fill:#ff7f0e;" x="294.95194" xlink:href="#mcb3005190c" y="172.027686"/>
     <use style="fill:#ff7f0e;" x="298.92398" xlink:href="#mcb3005190c" y="195.983058"/>
     <use style="fill:#ff7f0e;" x="302.89602" xlink:href="#mcb3005190c" y="195.983058"/>
     <use style="fill:#ff7f0e;" x="306.86806" xlink:href="#mcb3005190c" y="195.983058"/>
     <use style="fill:#ff7f0e;" x="310.840099" xlink:href="#mcb3005190c" y="195.983058"/>
     <use style="fill:#ff7f0e;" x="314.812139" xlink:href="#mcb3005190c" y="195.983058"/>
     <use style="fill:#ff7f0e;" x="318.784179" xlink:href="#mcb3005190c" y="195.983058"/>
     <use style="fill:#ff7f0e;" x="322.756218" xlink:href="#mcb3005190c" y="195.983058"/>
     <use style="fill:#ff7f0e;" x="326.728258" xlink:href="#mcb3005190c" y="195.983058"/>
     <use style="fill:#ff7f0e;" x="330.700298" xlink:href="#mcb3005190c" y="195.983058"/>
     <use style="fill:#ff7f0e;" x="334.672338" xlink:href="#mcb3005190c" y="195.983058"/>
     <use style="fill:#ff7f0e;" x="338.644377" xlink:href="#mcb3005190c" y="195.983058"/>
     <use style="fill:#ff7f0e;" x="342.616417" xlink:href="#mcb3005190c" y="195.983058"/>
     <use style="fill:#ff7f0e;" x="346.588457" xlink:href="#mcb3005190c" y="195.983058"/>
     <use style="fill:#ff7f0e;" x="350.560497" xlink:href="#mcb3005190c" y="219.93843"/>
     <use style="fill:#ff7f0e;" x="354.532536" xlink:href="#mcb3005190c" y="219.93843"/>
     <use style="fill:#ff7f0e;" x="358.504576" xlink:href="#mcb3005190c" y="195.983058"/>
     <use style="fill:#ff7f0e;" x="362.476616" xlink:href="#mcb3005190c" y="219.93843"/>
     <use style="fill:#ff7f0e;" x="366.448655" xlink:href="#mcb3005190c" y="219.93843"/>
     <use style="fill:#ff7f0e;" x="370.420695" xlink:href="#mcb3005190c" y="219.93843"/>
     <use style="fill:#ff7f0e;" x="374.392735" xlink:href="#mcb3005190c" y="219.93843"/>
     <use style="fill:#ff7f0e;" x="378.364775" xlink:href="#mcb3005190c" y="219.93843"/>
     <use style="fill:#ff7f0e;" x="382.336814" xlink:href="#mcb3005190c" y="219.93843"/>
     <use style="fill:#ff7f0e;" x="386.308854" xlink:href="#mcb3005190c" y="219.93843"/>
     <use style="fill:#ff7f0e;" x="390.280894" xlink:href="#mcb3005190c" y="219.93843"/>
     <use style="fill:#ff7f0e;" x="394.252934" xlink:href="#mcb3005190c" y="219.93843"/>
     <use style="fill:#ff7f0e;" x="398.224973" xlink:href="#mcb3005190c" y="219.93843"/>
     <use style="fill:#ff7f0e;" x="402.197013" xlink:href="#mcb3005190c" y="219.93843"/>
     <use style="fill:#ff7f0e;" x="406.169053" xlink:href="#mcb3005190c" y="219.93843"/>
     <use style="fill:#ff7f0e;" x="410.141092" xlink:href="#mcb3005190c" y="219.93843"/>
     <use style="fill:#ff7f0e;" x="414.113132" xlink:href="#mcb3005190c" y="219.93843"/>
     <use style="fill:#ff7f0e;" x="418.085172" xlink:href="#mcb3005190c" y="219.93843"/>
     <use style="fill:#ff7f0e;" x="422.057212" xlink:href="#mcb3005190c" y="219.93843"/>
     <use style="fill:#ff7f0e;" x="426.029251" xlink:href="#mcb3005190c" y="219.93843"/>
     <use style="fill:#ff7f0e;" x="430.001291" xlink:href="#mcb3005190c" y="219.93843"/>
     <use style="fill:#ff7f0e;" x="433.973331" xlink:href="#mcb3005190c" y="219.93843"/>
     <use style="fill:#ff7f0e;" x="437.945371" xlink:href="#mcb3005190c" y="219.93843"/>
     <use style="fill:#ff7f0e;" x="441.91741" xlink:href="#mcb3005190c" y="219.93843"/>
     <use style="fill:#ff7f0e;" x="445.88945" xlink:href="#mcb3005190c" y="219.93843"/>
     <use style="fill:#ff7f0e;" x="449.86149" xlink:href="#mcb3005190c" y="219.93843"/>
     <use style="fill:#ff7f0e;" x="453.833529" xlink:href="#mcb3005190c" y="219.93843"/>
     <use style="fill:#ff7f0e;" x="457.805569" xlink:href="#mcb3005190c" y="219.93843"/>
     <use style="fill:#ff7f0e;" x="461.777609" xlink:href="#mcb3005190c" y="219.93843"/>
     <use style="fill:#ff7f0e;" x="465.749649" xlink:href="#mcb3005190c" y="219.93843"/>
     <use style="fill:#ff7f0e;" x="469.721688" xlink:href="#mcb3005190c" y="219.93843"/>
     <use style="fill:#ff7f0e;" x="473.693728" xlink:href="#mcb3005190c" y="219.93843"/>
     <use style="fill:#ff7f0e;" x="477.665768" xlink:href="#mcb3005190c" y="219.93843"/>
     <use style="fill:#ff7f0e;" x="481.637807" xlink:href="#mcb3005190c" y="219.93843"/>
     <use style="fill:#ff7f0e;" x="485.609847" xlink:href="#mcb3005190c" y="219.93843"/>
     <use style="fill:#ff7f0e;" x="489.581887" xlink:href="#mcb3005190c" y="219.93843"/>
     <use style="fill:#ff7f0e;" x="493.553927" xlink:href="#mcb3005190c" y="219.93843"/>
     <use style="fill:#ff7f0e;" x="497.525966" xlink:href="#mcb3005190c" y="219.93843"/>
     <use style="fill:#ff7f0e;" x="501.498006" xlink:href="#mcb3005190c" y="219.93843"/>
     <use style="fill:#ff7f0e;" x="505.470046" xlink:href="#mcb3005190c" y="219.93843"/>
     <use style="fill:#ff7f0e;" x="509.442086" xlink:href="#mcb3005190c" y="219.93843"/>
     <use style="fill:#ff7f0e;" x="513.414125" xlink:href="#mcb3005190c" y="219.93843"/>
     <use style="fill:#ff7f0e;" x="517.386165" xlink:href="#mcb3005190c" y="219.93843"/>
     <use style="fill:#ff7f0e;" x="521.358205" xlink:href="#mcb3005190c" y="219.93843"/>
     <use style="fill:#ff7f0e;" x="525.330244" xlink:href="#mcb3005190c" y="219.93843"/>
     <use style="fill:#ff7f0e;" x="529.302284" xlink:href="#mcb3005190c" y="219.93843"/>
     <use style="fill:#ff7f0e;" x="533.274324" xlink:href="#mcb3005190c" y="219.93843"/>
     <use style="fill:#ff7f0e;" x="537.246364" xlink:href="#mcb3005190c" y="219.93843"/>
    </g>
   </g>
   <g id="line2d_17">
    <path clip-path="url(#p09bde8aa11)" d="M 64.573636 28.295455 
L 68.545676 28.295455 
L 72.517716 28.295455 
L 76.489756 28.295455 
L 80.461795 28.295455 
L 84.433835 52.250826 
L 88.405875 76.206198 
L 92.377914 100.16157 
L 96.349954 124.116942 
L 100.321994 148.072314 
L 104.294034 148.072314 
L 108.266073 172.027686 
L 112.238113 172.027686 
L 116.210153 195.983058 
L 120.182193 195.983058 
L 124.154232 195.983058 
L 128.126272 219.93843 
L 132.098312 219.93843 
L 136.070351 219.93843 
L 140.042391 219.93843 
L 144.014431 219.93843 
L 147.986471 219.93843 
L 151.95851 243.893802 
L 155.93055 243.893802 
L 159.90259 243.893802 
L 163.874629 243.893802 
L 167.846669 243.893802 
L 171.818709 243.893802 
L 175.790749 243.893802 
L 179.762788 243.893802 
L 183.734828 243.893802 
L 187.706868 243.893802 
L 191.678908 267.849174 
L 195.650947 267.849174 
L 199.622987 267.849174 
L 203.595027 267.849174 
L 207.567066 267.849174 
L 211.539106 267.849174 
L 215.511146 267.849174 
L 219.483186 267.849174 
L 223.455225 267.849174 
L 227.427265 267.849174 
L 231.399305 267.849174 
L 235.371345 267.849174 
L 239.343384 267.849174 
L 243.315424 267.849174 
L 247.287464 267.849174 
L 251.259503 267.849174 
L 255.231543 267.849174 
L 259.203583 267.849174 
L 263.175623 267.849174 
L 267.147662 267.849174 
L 271.119702 267.849174 
L 275.091742 267.849174 
L 279.063782 267.849174 
L 283.035821 267.849174 
L 287.007861 267.849174 
L 290.979901 267.849174 
L 294.95194 267.849174 
L 298.92398 267.849174 
L 302.89602 267.849174 
L 306.86806 267.849174 
L 310.840099 267.849174 
L 314.812139 267.849174 
L 318.784179 267.849174 
L 322.756218 267.849174 
L 326.728258 267.849174 
L 330.700298 267.849174 
L 334.672338 267.849174 
L 338.644377 267.849174 
L 342.616417 291.804545 
L 346.588457 291.804545 
L 350.560497 291.804545 
L 354.532536 291.804545 
L 358.504576 291.804545 
L 362.476616 291.804545 
L 366.448655 291.804545 
L 370.420695 291.804545 
L 374.392735 291.804545 
L 378.364775 291.804545 
L 382.336814 291.804545 
L 386.308854 291.804545 
L 390.280894 291.804545 
L 394.252934 291.804545 
L 398.224973 291.804545 
L 402.197013 291.804545 
L 406.169053 291.804545 
L 410.141092 291.804545 
L 414.113132 291.804545 
L 418.085172 291.804545 
L 422.057212 291.804545 
L 426.029251 291.804545 
L 430.001291 291.804545 
L 433.973331 291.804545 
L 437.945371 291.804545 
L 441.91741 291.804545 
L 445.88945 291.804545 
L 449.86149 291.804545 
L 453.833529 291.804545 
L 457.805569 291.804545 
L 461.777609 291.804545 
L 465.749649 291.804545 
L 469.721688 291.804545 
L 473.693728 291.804545 
L 477.665768 291.804545 
L 481.637807 291.804545 
L 485.609847 291.804545 
L 489.581887 291.804545 
L 493.553927 291.804545 
L 497.525966 291.804545 
L 501.498006 291.804545 
L 505.470046 291.804545 
L 509.442086 291.804545 
L 513.414125 291.804545 
L 517.386165 291.804545 
L 521.358205 291.804545 
L 525.330244 291.804545 
L 529.302284 291.804545 
L 533.274324 291.804545 
L 537.246364 291.804545 
" style="fill:none;stroke:#9467bd;stroke-width:2;"/>
    <defs>
     <path d="M -0.49999 0.49999 
L 0.50001 0.49999 
L 0.50001 -0.50001 
L -0.49999 -0.50001 
z
" id="m4f2c64c915"/>
    </defs>
    <g clip-path="url(#p09bde8aa11)">
     <use style="fill:#9467bd;" x="64.573636" xlink:href="#m4f2c64c915" y="28.295455"/>
     <use style="fill:#9467bd;" x="68.545676" xlink:href="#m4f2c64c915" y="28.295455"/>
     <use style="fill:#9467bd;" x="72.517716" xlink:href="#m4f2c64c915" y="28.295455"/>
     <use style="fill:#9467bd;" x="76.489756" xlink:href="#m4f2c64c915" y="28.295455"/>
     <use style="fill:#9467bd;" x="80.461795" xlink:href="#m4f2c64c915" y="28.295455"/>
     <use style="fill:#9467bd;" x="84.433835" xlink:href="#m4f2c64c915" y="52.250826"/>
     <use style="fill:#9467bd;" x="88.405875" xlink:href="#m4f2c64c915" y="76.206198"/>
     <use style="fill:#9467bd;" x="92.377914" xlink:href="#m4f2c64c915" y="100.16157"/>
     <use style="fill:#9467bd;" x="96.349954" xlink:href="#m4f2c64c915" y="124.116942"/>
     <use style="fill:#9467bd;" x="100.321994" xlink:href="#m4f2c64c915" y="148.072314"/>
     <use style="fill:#9467bd;" x="104.294034" xlink:href="#m4f2c64c915" y="148.072314"/>
     <use style="fill:#9467bd;" x="108.266073" xlink:href="#m4f2c64c915" y="172.027686"/>
     <use style="fill:#9467bd;" x="112.238113" xlink:href="#m4f2c64c915" y="172.027686"/>
     <use style="fill:#9467bd;" x="116.210153" xlink:href="#m4f2c64c915" y="195.983058"/>
     <use style="fill:#9467bd;" x="120.182193" xlink:href="#m4f2c64c915" y="195.983058"/>
     <use style="fill:#9467bd;" x="124.154232" xlink:href="#m4f2c64c915" y="195.983058"/>
     <use style="fill:#9467bd;" x="128.126272" xlink:href="#m4f2c64c915" y="219.93843"/>
     <use style="fill:#9467bd;" x="132.098312" xlink:href="#m4f2c64c915" y="219.93843"/>
     <use style="fill:#9467bd;" x="136.070351" xlink:href="#m4f2c64c915" y="219.93843"/>
     <use style="fill:#9467bd;" x="140.042391" xlink:href="#m4f2c64c915" y="219.93843"/>
     <use style="fill:#9467bd;" x="144.014431" xlink:href="#m4f2c64c915" y="219.93843"/>
     <use style="fill:#9467bd;" x="147.986471" xlink:href="#m4f2c64c915" y="219.93843"/>
     <use style="fill:#9467bd;" x="151.95851" xlink:href="#m4f2c64c915" y="243.893802"/>
     <use style="fill:#9467bd;" x="155.93055" xlink:href="#m4f2c64c915" y="243.893802"/>
     <use style="fill:#9467bd;" x="159.90259" xlink:href="#m4f2c64c915" y="243.893802"/>
     <use style="fill:#9467bd;" x="163.874629" xlink:href="#m4f2c64c915" y="243.893802"/>
     <use style="fill:#9467bd;" x="167.846669" xlink:href="#m4f2c64c915" y="243.893802"/>
     <use style="fill:#9467bd;" x="171.818709" xlink:href="#m4f2c64c915" y="243.893802"/>
     <use style="fill:#9467bd;" x="175.790749" xlink:href="#m4f2c64c915" y="243.893802"/>
     <use style="fill:#9467bd;" x="179.762788" xlink:href="#m4f2c64c915" y="243.893802"/>
     <use style="fill:#9467bd;" x="183.734828" xlink:href="#m4f2c64c915" y="243.893802"/>
     <use style="fill:#9467bd;" x="187.706868" xlink:href="#m4f2c64c915" y="243.893802"/>
     <use style="fill:#9467bd;" x="191.678908" xlink:href="#m4f2c64c915" y="267.849174"/>
     <use style="fill:#9467bd;" x="195.650947" xlink:href="#m4f2c64c915" y="267.849174"/>
     <use style="fill:#9467bd;" x="199.622987" xlink:href="#m4f2c64c915" y="267.849174"/>
     <use style="fill:#9467bd;" x="203.595027" xlink:href="#m4f2c64c915" y="267.849174"/>
     <use style="fill:#9467bd;" x="207.567066" xlink:href="#m4f2c64c915" y="267.849174"/>
     <use style="fill:#9467bd;" x="211.539106" xlink:href="#m4f2c64c915" y="267.849174"/>
     <use style="fill:#9467bd;" x="215.511146" xlink:href="#m4f2c64c915" y="267.849174"/>
     <use style="fill:#9467bd;" x="219.483186" xlink:href="#m4f2c64c915" y="267.849174"/>
     <use style="fill:#9467bd;" x="223.455225" xlink:href="#m4f2c64c915" y="267.849174"/>
     <use style="fill:#9467bd;" x="227.427265" xlink:href="#m4f2c64c915" y="267.849174"/>
     <use style="fill:#9467bd;" x="231.399305" xlink:href="#m4f2c64c915" y="267.849174"/>
     <use style="fill:#9467bd;" x="235.371345" xlink:href="#m4f2c64c915" y="267.849174"/>
     <use style="fill:#9467bd;" x="239.343384" xlink:href="#m4f2c64c915" y="267.849174"/>
     <use style="fill:#9467bd;" x="243.315424" xlink:href="#m4f2c64c915" y="267.849174"/>
     <use style="fill:#9467bd;" x="247.287464" xlink:href="#m4f2c64c915" y="267.849174"/>
     <use style="fill:#9467bd;" x="251.259503" xlink:href="#m4f2c64c915" y="267.849174"/>
     <use style="fill:#9467bd;" x="255.231543" xlink:href="#m4f2c64c915" y="267.849174"/>
     <use style="fill:#9467bd;" x="259.203583" xlink:href="#m4f2c64c915" y="267.849174"/>
     <use style="fill:#9467bd;" x="263.175623" xlink:href="#m4f2c64c915" y="267.849174"/>
     <use style="fill:#9467bd;" x="267.147662" xlink:href="#m4f2c64c915" y="267.849174"/>
     <use style="fill:#9467bd;" x="271.119702" xlink:href="#m4f2c64c915" y="267.849174"/>
     <use style="fill:#9467bd;" x="275.091742" xlink:href="#m4f2c64c915" y="267.849174"/>
     <use style="fill:#9467bd;" x="279.063782" xlink:href="#m4f2c64c915" y="267.849174"/>
     <use style="fill:#9467bd;" x="283.035821" xlink:href="#m4f2c64c915" y="267.849174"/>
     <use style="fill:#9467bd;" x="287.007861" xlink:href="#m4f2c64c915" y="267.849174"/>
     <use style="fill:#9467bd;" x="290.979901" xlink:href="#m4f2c64c915" y="267.849174"/>
     <use style="fill:#9467bd;" x="294.95194" xlink:href="#m4f2c64c915" y="267.849174"/>
     <use style="fill:#9467bd;" x="298.92398" xlink:href="#m4f2c64c915" y="267.849174"/>
     <use style="fill:#9467bd;" x="302.89602" xlink:href="#m4f2c64c915" y="267.849174"/>
     <use style="fill:#9467bd;" x="306.86806" xlink:href="#m4f2c64c915" y="267.849174"/>
     <use style="fill:#9467bd;" x="310.840099" xlink:href="#m4f2c64c915" y="267.849174"/>
     <use style="fill:#9467bd;" x="314.812139" xlink:href="#m4f2c64c915" y="267.849174"/>
     <use style="fill:#9467bd;" x="318.784179" xlink:href="#m4f2c64c915" y="267.849174"/>
     <use style="fill:#9467bd;" x="322.756218" xlink:href="#m4f2c64c915" y="267.849174"/>
     <use style="fill:#9467bd;" x="326.728258" xlink:href="#m4f2c64c915" y="267.849174"/>
     <use style="fill:#9467bd;" x="330.700298" xlink:href="#m4f2c64c915" y="267.849174"/>
     <use style="fill:#9467bd;" x="334.672338" xlink:href="#m4f2c64c915" y="267.849174"/>
     <use style="fill:#9467bd;" x="338.644377" xlink:href="#m4f2c64c915" y="267.849174"/>
     <use style="fill:#9467bd;" x="342.616417" xlink:href="#m4f2c64c915" y="291.804545"/>
     <use style="fill:#9467bd;" x="346.588457" xlink:href="#m4f2c64c915" y="291.804545"/>
     <use style="fill:#9467bd;" x="350.560497" xlink:href="#m4f2c64c915" y="291.804545"/>
     <use style="fill:#9467bd;" x="354.532536" xlink:href="#m4f2c64c915" y="291.804545"/>
     <use style="fill:#9467bd;" x="358.504576" xlink:href="#m4f2c64c915" y="291.804545"/>
     <use style="fill:#9467bd;" x="362.476616" xlink:href="#m4f2c64c915" y="291.804545"/>
     <use style="fill:#9467bd;" x="366.448655" xlink:href="#m4f2c64c915" y="291.804545"/>
     <use style="fill:#9467bd;" x="370.420695" xlink:href="#m4f2c64c915" y="291.804545"/>
     <use style="fill:#9467bd;" x="374.392735" xlink:href="#m4f2c64c915" y="291.804545"/>
     <use style="fill:#9467bd;" x="378.364775" xlink:href="#m4f2c64c915" y="291.804545"/>
     <use style="fill:#9467bd;" x="382.336814" xlink:href="#m4f2c64c915" y="291.804545"/>
     <use style="fill:#9467bd;" x="386.308854" xlink:href="#m4f2c64c915" y="291.804545"/>
     <use style="fill:#9467bd;" x="390.280894" xlink:href="#m4f2c64c915" y="291.804545"/>
     <use style="fill:#9467bd;" x="394.252934" xlink:href="#m4f2c64c915" y="291.804545"/>
     <use style="fill:#9467bd;" x="398.224973" xlink:href="#m4f2c64c915" y="291.804545"/>
     <use style="fill:#9467bd;" x="402.197013" xlink:href="#m4f2c64c915" y="291.804545"/>
     <use style="fill:#9467bd;" x="406.169053" xlink:href="#m4f2c64c915" y="291.804545"/>
     <use style="fill:#9467bd;" x="410.141092" xlink:href="#m4f2c64c915" y="291.804545"/>
     <use style="fill:#9467bd;" x="414.113132" xlink:href="#m4f2c64c915" y="291.804545"/>
     <use style="fill:#9467bd;" x="418.085172" xlink:href="#m4f2c64c915" y="291.804545"/>
     <use style="fill:#9467bd;" x="422.057212" xlink:href="#m4f2c64c915" y="291.804545"/>
     <use style="fill:#9467bd;" x="426.029251" xlink:href="#m4f2c64c915" y="291.804545"/>
     <use style="fill:#9467bd;" x="430.001291" xlink:href="#m4f2c64c915" y="291.804545"/>
     <use style="fill:#9467bd;" x="433.973331" xlink:href="#m4f2c64c915" y="291.804545"/>
     <use style="fill:#9467bd;" x="437.945371" xlink:href="#m4f2c64c915" y="291.804545"/>
     <use style="fill:#9467bd;" x="441.91741" xlink:href="#m4f2c64c915" y="291.804545"/>
     <use style="fill:#9467bd;" x="445.88945" xlink:href="#m4f2c64c915" y="291.804545"/>
     <use style="fill:#9467bd;" x="449.86149" xlink:href="#m4f2c64c915" y="291.804545"/>
     <use style="fill:#9467bd;" x="453.833529" xlink:href="#m4f2c64c915" y="291.804545"/>
     <use style="fill:#9467bd;" x="457.805569" xlink:href="#m4f2c64c915" y="291.804545"/>
     <use style="fill:#9467bd;" x="461.777609" xlink:href="#m4f2c64c915" y="291.804545"/>
     <use style="fill:#9467bd;" x="465.749649" xlink:href="#m4f2c64c915" y="291.804545"/>
     <use style="fill:#9467bd;" x="469.721688" xlink:href="#m4f2c64c915" y="291.804545"/>
     <use style="fill:#9467bd;" x="473.693728" xlink:href="#m4f2c64c915" y="291.804545"/>
     <use style="fill:#9467bd;" x="477.665768" xlink:href="#m4f2c64c915" y="291.804545"/>
     <use style="fill:#9467bd;" x="481.637807" xlink:href="#m4f2c64c915" y="291.804545"/>
     <use style="fill:#9467bd;" x="485.609847" xlink:href="#m4f2c64c915" y="291.804545"/>
     <use style="fill:#9467bd;" x="489.581887" xlink:href="#m4f2c64c915" y="291.804545"/>
     <use style="fill:#9467bd;" x="493.553927" xlink:href="#m4f2c64c915" y="291.804545"/>
     <use style="fill:#9467bd;" x="497.525966" xlink:href="#m4f2c64c915" y="291.804545"/>
     <use style="fill:#9467bd;" x="501.498006" xlink:href="#m4f2c64c915" y="291.804545"/>
     <use style="fill:#9467bd;" x="505.470046" xlink:href="#m4f2c64c915" y="291.804545"/>
     <use style="fill:#9467bd;" x="509.442086" xlink:href="#m4f2c64c915" y="291.804545"/>
     <use style="fill:#9467bd;" x="513.414125" xlink:href="#m4f2c64c915" y="291.804545"/>
     <use style="fill:#9467bd;" x="517.386165" xlink:href="#m4f2c64c915" y="291.804545"/>
     <use style="fill:#9467bd;" x="521.358205" xlink:href="#m4f2c64c915" y="291.804545"/>
     <use style="fill:#9467bd;" x="525.330244" xlink:href="#m4f2c64c915" y="291.804545"/>
     <use style="fill:#9467bd;" x="529.302284" xlink:href="#m4f2c64c915" y="291.804545"/>
     <use style="fill:#9467bd;" x="533.274324" xlink:href="#m4f2c64c915" y="291.804545"/>
     <use style="fill:#9467bd;" x="537.246364" xlink:href="#m4f2c64c915" y="291.804545"/>
    </g>
   </g>
   <g id="line2d_18">
    <path clip-path="url(#p09bde8aa11)" d="M 64.573636 28.295455 
L 68.545676 28.295455 
L 72.517716 28.295455 
L 76.489756 52.250826 
L 80.461795 52.250826 
L 84.433835 52.250826 
L 88.405875 52.250826 
L 92.377914 52.250826 
L 96.349954 76.206198 
L 100.321994 76.206198 
L 104.294034 76.206198 
L 108.266073 76.206198 
L 112.238113 76.206198 
L 116.210153 100.16157 
L 120.182193 100.16157 
L 124.154232 100.16157 
L 128.126272 100.16157 
L 132.098312 100.16157 
L 136.070351 124.116942 
L 140.042391 124.116942 
L 144.014431 124.116942 
L 147.986471 124.116942 
L 151.95851 124.116942 
L 155.93055 148.072314 
L 159.90259 148.072314 
L 163.874629 148.072314 
L 167.846669 148.072314 
L 171.818709 148.072314 
L 175.790749 148.072314 
L 179.762788 148.072314 
L 183.734828 172.027686 
L 187.706868 172.027686 
L 191.678908 172.027686 
L 195.650947 172.027686 
L 199.622987 172.027686 
L 203.595027 172.027686 
L 207.567066 195.983058 
L 211.539106 195.983058 
L 215.511146 195.983058 
L 219.483186 195.983058 
L 223.455225 195.983058 
L 227.427265 195.983058 
L 231.399305 195.983058 
L 235.371345 195.983058 
L 239.343384 195.983058 
L 243.315424 195.983058 
L 247.287464 219.93843 
L 251.259503 219.93843 
L 255.231543 219.93843 
L 259.203583 219.93843 
L 263.175623 219.93843 
L 267.147662 219.93843 
L 271.119702 219.93843 
L 275.091742 219.93843 
L 279.063782 219.93843 
L 283.035821 219.93843 
L 287.007861 219.93843 
L 290.979901 219.93843 
L 294.95194 219.93843 
L 298.92398 219.93843 
L 302.89602 219.93843 
L 306.86806 219.93843 
L 310.840099 219.93843 
L 314.812139 219.93843 
L 318.784179 243.893802 
L 322.756218 243.893802 
L 326.728258 243.893802 
L 330.700298 243.893802 
L 334.672338 243.893802 
L 338.644377 243.893802 
L 342.616417 243.893802 
L 346.588457 243.893802 
L 350.560497 243.893802 
L 354.532536 243.893802 
L 358.504576 243.893802 
L 362.476616 243.893802 
L 366.448655 243.893802 
L 370.420695 243.893802 
L 374.392735 267.849174 
L 378.364775 243.893802 
L 382.336814 243.893802 
L 386.308854 243.893802 
L 390.280894 243.893802 
L 394.252934 243.893802 
L 398.224973 243.893802 
L 402.197013 267.849174 
L 406.169053 243.893802 
L 410.141092 267.849174 
L 414.113132 267.849174 
L 418.085172 267.849174 
L 422.057212 267.849174 
L 426.029251 267.849174 
L 430.001291 267.849174 
L 433.973331 267.849174 
L 437.945371 267.849174 
L 441.91741 267.849174 
L 445.88945 267.849174 
L 449.86149 267.849174 
L 453.833529 267.849174 
L 457.805569 267.849174 
L 461.777609 267.849174 
L 465.749649 267.849174 
L 469.721688 267.849174 
L 473.693728 267.849174 
L 477.665768 267.849174 
L 481.637807 267.849174 
L 485.609847 267.849174 
L 489.581887 267.849174 
L 493.553927 267.849174 
L 497.525966 267.849174 
L 501.498006 267.849174 
L 505.470046 267.849174 
L 509.442086 267.849174 
L 513.414125 267.849174 
L 517.386165 267.849174 
L 521.358205 267.849174 
L 525.330244 267.849174 
L 529.302284 267.849174 
L 533.274324 267.849174 
L 537.246364 267.849174 
" style="fill:none;stroke:#d62728;stroke-width:2;"/>
    <defs>
     <path d="M -0.49999 0.49999 
L 0.50001 0.49999 
L 0.50001 -0.50001 
L -0.49999 -0.50001 
z
" id="m362f32b556"/>
    </defs>
    <g clip-path="url(#p09bde8aa11)">
     <use style="fill:#d62728;" x="64.573636" xlink:href="#m362f32b556" y="28.295455"/>
     <use style="fill:#d62728;" x="68.545676" xlink:href="#m362f32b556" y="28.295455"/>
     <use style="fill:#d62728;" x="72.517716" xlink:href="#m362f32b556" y="28.295455"/>
     <use style="fill:#d62728;" x="76.489756" xlink:href="#m362f32b556" y="52.250826"/>
     <use style="fill:#d62728;" x="80.461795" xlink:href="#m362f32b556" y="52.250826"/>
     <use style="fill:#d62728;" x="84.433835" xlink:href="#m362f32b556" y="52.250826"/>
     <use style="fill:#d62728;" x="88.405875" xlink:href="#m362f32b556" y="52.250826"/>
     <use style="fill:#d62728;" x="92.377914" xlink:href="#m362f32b556" y="52.250826"/>
     <use style="fill:#d62728;" x="96.349954" xlink:href="#m362f32b556" y="76.206198"/>
     <use style="fill:#d62728;" x="100.321994" xlink:href="#m362f32b556" y="76.206198"/>
     <use style="fill:#d62728;" x="104.294034" xlink:href="#m362f32b556" y="76.206198"/>
     <use style="fill:#d62728;" x="108.266073" xlink:href="#m362f32b556" y="76.206198"/>
     <use style="fill:#d62728;" x="112.238113" xlink:href="#m362f32b556" y="76.206198"/>
     <use style="fill:#d62728;" x="116.210153" xlink:href="#m362f32b556" y="100.16157"/>
     <use style="fill:#d62728;" x="120.182193" xlink:href="#m362f32b556" y="100.16157"/>
     <use style="fill:#d62728;" x="124.154232" xlink:href="#m362f32b556" y="100.16157"/>
     <use style="fill:#d62728;" x="128.126272" xlink:href="#m362f32b556" y="100.16157"/>
     <use style="fill:#d62728;" x="132.098312" xlink:href="#m362f32b556" y="100.16157"/>
     <use style="fill:#d62728;" x="136.070351" xlink:href="#m362f32b556" y="124.116942"/>
     <use style="fill:#d62728;" x="140.042391" xlink:href="#m362f32b556" y="124.116942"/>
     <use style="fill:#d62728;" x="144.014431" xlink:href="#m362f32b556" y="124.116942"/>
     <use style="fill:#d62728;" x="147.986471" xlink:href="#m362f32b556" y="124.116942"/>
     <use style="fill:#d62728;" x="151.95851" xlink:href="#m362f32b556" y="124.116942"/>
     <use style="fill:#d62728;" x="155.93055" xlink:href="#m362f32b556" y="148.072314"/>
     <use style="fill:#d62728;" x="159.90259" xlink:href="#m362f32b556" y="148.072314"/>
     <use style="fill:#d62728;" x="163.874629" xlink:href="#m362f32b556" y="148.072314"/>
     <use style="fill:#d62728;" x="167.846669" xlink:href="#m362f32b556" y="148.072314"/>
     <use style="fill:#d62728;" x="171.818709" xlink:href="#m362f32b556" y="148.072314"/>
     <use style="fill:#d62728;" x="175.790749" xlink:href="#m362f32b556" y="148.072314"/>
     <use style="fill:#d62728;" x="179.762788" xlink:href="#m362f32b556" y="148.072314"/>
     <use style="fill:#d62728;" x="183.734828" xlink:href="#m362f32b556" y="172.027686"/>
     <use style="fill:#d62728;" x="187.706868" xlink:href="#m362f32b556" y="172.027686"/>
     <use style="fill:#d62728;" x="191.678908" xlink:href="#m362f32b556" y="172.027686"/>
     <use style="fill:#d62728;" x="195.650947" xlink:href="#m362f32b556" y="172.027686"/>
     <use style="fill:#d62728;" x="199.622987" xlink:href="#m362f32b556" y="172.027686"/>
     <use style="fill:#d62728;" x="203.595027" xlink:href="#m362f32b556" y="172.027686"/>
     <use style="fill:#d62728;" x="207.567066" xlink:href="#m362f32b556" y="195.983058"/>
     <use style="fill:#d62728;" x="211.539106" xlink:href="#m362f32b556" y="195.983058"/>
     <use style="fill:#d62728;" x="215.511146" xlink:href="#m362f32b556" y="195.983058"/>
     <use style="fill:#d62728;" x="219.483186" xlink:href="#m362f32b556" y="195.983058"/>
     <use style="fill:#d62728;" x="223.455225" xlink:href="#m362f32b556" y="195.983058"/>
     <use style="fill:#d62728;" x="227.427265" xlink:href="#m362f32b556" y="195.983058"/>
     <use style="fill:#d62728;" x="231.399305" xlink:href="#m362f32b556" y="195.983058"/>
     <use style="fill:#d62728;" x="235.371345" xlink:href="#m362f32b556" y="195.983058"/>
     <use style="fill:#d62728;" x="239.343384" xlink:href="#m362f32b556" y="195.983058"/>
     <use style="fill:#d62728;" x="243.315424" xlink:href="#m362f32b556" y="195.983058"/>
     <use style="fill:#d62728;" x="247.287464" xlink:href="#m362f32b556" y="219.93843"/>
     <use style="fill:#d62728;" x="251.259503" xlink:href="#m362f32b556" y="219.93843"/>
     <use style="fill:#d62728;" x="255.231543" xlink:href="#m362f32b556" y="219.93843"/>
     <use style="fill:#d62728;" x="259.203583" xlink:href="#m362f32b556" y="219.93843"/>
     <use style="fill:#d62728;" x="263.175623" xlink:href="#m362f32b556" y="219.93843"/>
     <use style="fill:#d62728;" x="267.147662" xlink:href="#m362f32b556" y="219.93843"/>
     <use style="fill:#d62728;" x="271.119702" xlink:href="#m362f32b556" y="219.93843"/>
     <use style="fill:#d62728;" x="275.091742" xlink:href="#m362f32b556" y="219.93843"/>
     <use style="fill:#d62728;" x="279.063782" xlink:href="#m362f32b556" y="219.93843"/>
     <use style="fill:#d62728;" x="283.035821" xlink:href="#m362f32b556" y="219.93843"/>
     <use style="fill:#d62728;" x="287.007861" xlink:href="#m362f32b556" y="219.93843"/>
     <use style="fill:#d62728;" x="290.979901" xlink:href="#m362f32b556" y="219.93843"/>
     <use style="fill:#d62728;" x="294.95194" xlink:href="#m362f32b556" y="219.93843"/>
     <use style="fill:#d62728;" x="298.92398" xlink:href="#m362f32b556" y="219.93843"/>
     <use style="fill:#d62728;" x="302.89602" xlink:href="#m362f32b556" y="219.93843"/>
     <use style="fill:#d62728;" x="306.86806" xlink:href="#m362f32b556" y="219.93843"/>
     <use style="fill:#d62728;" x="310.840099" xlink:href="#m362f32b556" y="219.93843"/>
     <use style="fill:#d62728;" x="314.812139" xlink:href="#m362f32b556" y="219.93843"/>
     <use style="fill:#d62728;" x="318.784179" xlink:href="#m362f32b556" y="243.893802"/>
     <use style="fill:#d62728;" x="322.756218" xlink:href="#m362f32b556" y="243.893802"/>
     <use style="fill:#d62728;" x="326.728258" xlink:href="#m362f32b556" y="243.893802"/>
     <use style="fill:#d62728;" x="330.700298" xlink:href="#m362f32b556" y="243.893802"/>
     <use style="fill:#d62728;" x="334.672338" xlink:href="#m362f32b556" y="243.893802"/>
     <use style="fill:#d62728;" x="338.644377" xlink:href="#m362f32b556" y="243.893802"/>
     <use style="fill:#d62728;" x="342.616417" xlink:href="#m362f32b556" y="243.893802"/>
     <use style="fill:#d62728;" x="346.588457" xlink:href="#m362f32b556" y="243.893802"/>
     <use style="fill:#d62728;" x="350.560497" xlink:href="#m362f32b556" y="243.893802"/>
     <use style="fill:#d62728;" x="354.532536" xlink:href="#m362f32b556" y="243.893802"/>
     <use style="fill:#d62728;" x="358.504576" xlink:href="#m362f32b556" y="243.893802"/>
     <use style="fill:#d62728;" x="362.476616" xlink:href="#m362f32b556" y="243.893802"/>
     <use style="fill:#d62728;" x="366.448655" xlink:href="#m362f32b556" y="243.893802"/>
     <use style="fill:#d62728;" x="370.420695" xlink:href="#m362f32b556" y="243.893802"/>
     <use style="fill:#d62728;" x="374.392735" xlink:href="#m362f32b556" y="267.849174"/>
     <use style="fill:#d62728;" x="378.364775" xlink:href="#m362f32b556" y="243.893802"/>
     <use style="fill:#d62728;" x="382.336814" xlink:href="#m362f32b556" y="243.893802"/>
     <use style="fill:#d62728;" x="386.308854" xlink:href="#m362f32b556" y="243.893802"/>
     <use style="fill:#d62728;" x="390.280894" xlink:href="#m362f32b556" y="243.893802"/>
     <use style="fill:#d62728;" x="394.252934" xlink:href="#m362f32b556" y="243.893802"/>
     <use style="fill:#d62728;" x="398.224973" xlink:href="#m362f32b556" y="243.893802"/>
     <use style="fill:#d62728;" x="402.197013" xlink:href="#m362f32b556" y="267.849174"/>
     <use style="fill:#d62728;" x="406.169053" xlink:href="#m362f32b556" y="243.893802"/>
     <use style="fill:#d62728;" x="410.141092" xlink:href="#m362f32b556" y="267.849174"/>
     <use style="fill:#d62728;" x="414.113132" xlink:href="#m362f32b556" y="267.849174"/>
     <use style="fill:#d62728;" x="418.085172" xlink:href="#m362f32b556" y="267.849174"/>
     <use style="fill:#d62728;" x="422.057212" xlink:href="#m362f32b556" y="267.849174"/>
     <use style="fill:#d62728;" x="426.029251" xlink:href="#m362f32b556" y="267.849174"/>
     <use style="fill:#d62728;" x="430.001291" xlink:href="#m362f32b556" y="267.849174"/>
     <use style="fill:#d62728;" x="433.973331" xlink:href="#m362f32b556" y="267.849174"/>
     <use style="fill:#d62728;" x="437.945371" xlink:href="#m362f32b556" y="267.849174"/>
     <use style="fill:#d62728;" x="441.91741" xlink:href="#m362f32b556" y="267.849174"/>
     <use style="fill:#d62728;" x="445.88945" xlink:href="#m362f32b556" y="267.849174"/>
     <use style="fill:#d62728;" x="449.86149" xlink:href="#m362f32b556" y="267.849174"/>
     <use style="fill:#d62728;" x="453.833529" xlink:href="#m362f32b556" y="267.849174"/>
     <use style="fill:#d62728;" x="457.805569" xlink:href="#m362f32b556" y="267.849174"/>
     <use style="fill:#d62728;" x="461.777609" xlink:href="#m362f32b556" y="267.849174"/>
     <use style="fill:#d62728;" x="465.749649" xlink:href="#m362f32b556" y="267.849174"/>
     <use style="fill:#d62728;" x="469.721688" xlink:href="#m362f32b556" y="267.849174"/>
     <use style="fill:#d62728;" x="473.693728" xlink:href="#m362f32b556" y="267.849174"/>
     <use style="fill:#d62728;" x="477.665768" xlink:href="#m362f32b556" y="267.849174"/>
     <use style="fill:#d62728;" x="481.637807" xlink:href="#m362f32b556" y="267.849174"/>
     <use style="fill:#d62728;" x="485.609847" xlink:href="#m362f32b556" y="267.849174"/>
     <use style="fill:#d62728;" x="489.581887" xlink:href="#m362f32b556" y="267.849174"/>
     <use style="fill:#d62728;" x="493.553927" xlink:href="#m362f32b556" y="267.849174"/>
     <use style="fill:#d62728;" x="497.525966" xlink:href="#m362f32b556" y="267.849174"/>
     <use style="fill:#d62728;" x="501.498006" xlink:href="#m362f32b556" y="267.849174"/>
     <use style="fill:#d62728;" x="505.470046" xlink:href="#m362f32b556" y="267.849174"/>
     <use style="fill:#d62728;" x="509.442086" xlink:href="#m362f32b556" y="267.849174"/>
     <use style="fill:#d62728;" x="513.414125" xlink:href="#m362f32b556" y="267.849174"/>
     <use style="fill:#d62728;" x="517.386165" xlink:href="#m362f32b556" y="267.849174"/>
     <use style="fill:#d62728;" x="521.358205" xlink:href="#m362f32b556" y="267.849174"/>
     <use style="fill:#d62728;" x="525.330244" xlink:href="#m362f32b556" y="267.849174"/>
     <use style="fill:#d62728;" x="529.302284" xlink:href="#m362f32b556" y="267.849174"/>
     <use style="fill:#d62728;" x="533.274324" xlink:href="#m362f32b556" y="267.849174"/>
     <use style="fill:#d62728;" x="537.246364" xlink:href="#m362f32b556" y="267.849174"/>
    </g>
   </g>
   <g id="patch_2">
    <path d="M 40.94 304.98 
L 40.94 15.12 
" style="fill:none;stroke:#f0f0f0;stroke-linecap:square;stroke-linejoin:miter;stroke-width:3;"/>
   </g>
   <g id="patch_3">
    <path d="M 560.88 304.98 
L 560.88 15.12 
" style="fill:none;stroke:#f0f0f0;stroke-linecap:square;stroke-linejoin:miter;stroke-width:3;"/>
   </g>
   <g id="patch_4">
    <path d="M 40.94 304.98 
L 560.88 304.98 
" style="fill:none;stroke:#f0f0f0;stroke-linecap:square;stroke-linejoin:miter;stroke-width:3;"/>
   </g>
   <g id="patch_5">
    <path d="M 40.94 15.12 
L 560.88 15.12 
" style="fill:none;stroke:#f0f0f0;stroke-linecap:square;stroke-linejoin:miter;stroke-width:3;"/>
   </g>
   <g id="legend_1">
    <g id="patch_6">
     <path d="M 441.5975 118.41 
L 549.68 118.41 
Q 552.88 118.41 552.88 115.21 
L 552.88 26.32 
Q 552.88 23.12 549.68 23.12 
L 441.5975 23.12 
Q 438.3975 23.12 438.3975 26.32 
L 438.3975 115.21 
Q 438.3975 118.41 441.5975 118.41 
z
" style="fill:#f0f0f0;opacity:0.8;stroke:#cccccc;stroke-linejoin:miter;stroke-width:0.5;"/>
    </g>
    <g id="line2d_19">
     <path d="M 444.7975 35.12 
L 476.7975 35.12 
" style="fill:none;stroke:#1f77b4;stroke-width:2;"/>
    </g>
    <g id="line2d_20">
     <g>
      <use style="fill:#1f77b4;" x="460.7975" xlink:href="#ma7435f35ad" y="35.12"/>
     </g>
    </g>
    <g id="text_16">
     <!-- 2x64-D -->
     <defs>
      <path d="M 45.84375 12.75 
L 41.21875 0 
L 2.15625 0 
L 2.15625 1.8125 
Q 19.390625 17.53125 26.421875 27.484375 
Q 33.453125 37.453125 33.453125 45.703125 
Q 33.453125 52 29.59375 56.046875 
Q 25.734375 60.109375 20.359375 60.109375 
Q 15.484375 60.109375 11.59375 57.25 
Q 7.71875 54.390625 5.859375 48.875 
L 4.046875 48.875 
Q 5.28125 57.90625 10.328125 62.734375 
Q 15.375 67.578125 22.953125 67.578125 
Q 31 67.578125 36.390625 62.40625 
Q 41.796875 57.234375 41.796875 50.203125 
Q 41.796875 45.171875 39.453125 40.140625 
Q 35.84375 32.234375 27.734375 23.390625 
Q 15.578125 10.109375 12.546875 7.375 
L 29.828125 7.375 
Q 35.109375 7.375 37.234375 7.765625 
Q 39.359375 8.15625 41.0625 9.34375 
Q 42.78125 10.546875 44.046875 12.75 
z
" id="TimesNewRomanPSMT-50"/>
      <path d="M 1.3125 44.734375 
L 22.359375 44.734375 
L 22.359375 42.921875 
Q 20.359375 42.921875 19.546875 42.234375 
Q 18.75 41.546875 18.75 40.4375 
Q 18.75 39.265625 20.453125 36.8125 
Q 21 36.03125 22.078125 34.375 
L 25.25 29.296875 
L 28.90625 34.375 
Q 32.421875 39.203125 32.421875 40.484375 
Q 32.421875 41.5 31.59375 42.203125 
Q 30.765625 42.921875 28.90625 42.921875 
L 28.90625 44.734375 
L 44.046875 44.734375 
L 44.046875 42.921875 
Q 41.65625 42.78125 39.890625 41.609375 
Q 37.5 39.9375 33.34375 34.375 
L 27.25 26.21875 
L 38.375 10.203125 
Q 42.484375 4.296875 44.234375 3.09375 
Q 46 1.90625 48.78125 1.765625 
L 48.78125 0 
L 27.6875 0 
L 27.6875 1.765625 
Q 29.890625 1.765625 31.109375 2.734375 
Q 32.03125 3.421875 32.03125 4.546875 
Q 32.03125 5.671875 28.90625 10.203125 
L 22.359375 19.78125 
L 15.1875 10.203125 
Q 11.859375 5.765625 11.859375 4.9375 
Q 11.859375 3.765625 12.953125 2.8125 
Q 14.0625 1.859375 16.265625 1.765625 
L 16.265625 0 
L 1.65625 0 
L 1.65625 1.765625 
Q 3.421875 2 4.734375 2.984375 
Q 6.59375 4.390625 10.984375 10.203125 
L 20.359375 22.65625 
L 11.859375 34.96875 
Q 8.25 40.234375 6.265625 41.578125 
Q 4.296875 42.921875 1.3125 42.921875 
z
" id="TimesNewRomanPSMT-120"/>
      <path d="M 44.828125 67.578125 
L 44.828125 65.765625 
Q 38.375 65.140625 34.296875 63.203125 
Q 30.21875 61.28125 26.234375 57.328125 
Q 22.265625 53.375 19.65625 48.515625 
Q 17.046875 43.65625 15.28125 36.96875 
Q 22.3125 41.796875 29.390625 41.796875 
Q 36.1875 41.796875 41.15625 36.328125 
Q 46.140625 30.859375 46.140625 22.265625 
Q 46.140625 13.96875 41.109375 7.125 
Q 35.0625 -1.171875 25.09375 -1.171875 
Q 18.3125 -1.171875 13.578125 3.328125 
Q 4.296875 12.0625 4.296875 25.984375 
Q 4.296875 34.859375 7.859375 42.859375 
Q 11.421875 50.875 18.03125 57.078125 
Q 24.65625 63.28125 30.703125 65.421875 
Q 36.765625 67.578125 42 67.578125 
z
M 14.453125 33.40625 
Q 13.578125 26.8125 13.578125 22.75 
Q 13.578125 18.0625 15.3125 12.5625 
Q 17.046875 7.078125 20.453125 3.859375 
Q 22.953125 1.5625 26.515625 1.5625 
Q 30.765625 1.5625 34.109375 5.5625 
Q 37.453125 9.578125 37.453125 17 
Q 37.453125 25.34375 34.125 31.4375 
Q 30.8125 37.546875 24.703125 37.546875 
Q 22.859375 37.546875 20.734375 36.765625 
Q 18.609375 35.984375 14.453125 33.40625 
z
" id="TimesNewRomanPSMT-54"/>
      <path d="M 46.53125 24.421875 
L 46.53125 17.484375 
L 37.640625 17.484375 
L 37.640625 0 
L 29.59375 0 
L 29.59375 17.484375 
L 1.5625 17.484375 
L 1.5625 23.734375 
L 32.28125 67.578125 
L 37.640625 67.578125 
L 37.640625 24.421875 
z
M 29.59375 24.421875 
L 29.59375 57.28125 
L 6.34375 24.421875 
z
" id="TimesNewRomanPSMT-52"/>
      <path d="M 4.046875 26.125 
L 29.296875 26.125 
L 29.296875 18.75 
L 4.046875 18.75 
z
" id="TimesNewRomanPSMT-45"/>
      <path d="M 1.703125 0 
L 1.703125 1.8125 
L 4.203125 1.8125 
Q 8.40625 1.8125 10.15625 4.5 
Q 11.234375 6.109375 11.234375 11.71875 
L 11.234375 54.5 
Q 11.234375 60.6875 9.859375 62.25 
Q 7.953125 64.40625 4.203125 64.40625 
L 1.703125 64.40625 
L 1.703125 66.21875 
L 28.65625 66.21875 
Q 43.5 66.21875 51.234375 62.84375 
Q 58.984375 59.46875 63.6875 51.609375 
Q 68.40625 43.75 68.40625 33.453125 
Q 68.40625 19.625 60.015625 10.359375 
Q 50.59375 0 31.296875 0 
z
M 20.609375 4.78125 
Q 26.8125 3.421875 31 3.421875 
Q 42.328125 3.421875 49.796875 11.375 
Q 57.28125 19.34375 57.28125 32.953125 
Q 57.28125 46.6875 49.796875 54.59375 
Q 42.328125 62.5 30.609375 62.5 
Q 26.21875 62.5 20.609375 61.078125 
z
" id="TimesNewRomanPSMT-68"/>
     </defs>
     <g transform="translate(489.5975 40.72)scale(0.16 -0.16)">
      <use xlink:href="#TimesNewRomanPSMT-50"/>
      <use x="50" xlink:href="#TimesNewRomanPSMT-120"/>
      <use x="100" xlink:href="#TimesNewRomanPSMT-54"/>
      <use x="150" xlink:href="#TimesNewRomanPSMT-52"/>
      <use x="200" xlink:href="#TimesNewRomanPSMT-45"/>
      <use x="233.300781" xlink:href="#TimesNewRomanPSMT-68"/>
     </g>
    </g>
    <g id="line2d_21">
     <path d="M 444.7975 57.7425 
L 476.7975 57.7425 
" style="fill:none;stroke:#ff7f0e;stroke-width:2;"/>
    </g>
    <g id="line2d_22">
     <g>
      <use style="fill:#ff7f0e;" x="460.7975" xlink:href="#mcb3005190c" y="57.7425"/>
     </g>
    </g>
    <g id="text_17">
     <!-- 2x128-D -->
     <defs>
      <path d="M 11.71875 59.71875 
L 27.828125 67.578125 
L 29.4375 67.578125 
L 29.4375 11.671875 
Q 29.4375 6.109375 29.90625 4.734375 
Q 30.375 3.375 31.828125 2.640625 
Q 33.296875 1.90625 37.796875 1.8125 
L 37.796875 0 
L 12.890625 0 
L 12.890625 1.8125 
Q 17.578125 1.90625 18.9375 2.609375 
Q 20.3125 3.328125 20.84375 4.515625 
Q 21.390625 5.71875 21.390625 11.671875 
L 21.390625 47.40625 
Q 21.390625 54.640625 20.90625 56.6875 
Q 20.5625 58.25 19.65625 58.984375 
Q 18.75 59.71875 17.484375 59.71875 
Q 15.671875 59.71875 12.453125 58.203125 
z
" id="TimesNewRomanPSMT-49"/>
      <path d="M 19.1875 33.34375 
Q 11.328125 39.796875 9.046875 43.703125 
Q 6.78125 47.609375 6.78125 51.8125 
Q 6.78125 58.25 11.765625 62.90625 
Q 16.75 67.578125 25 67.578125 
Q 33.015625 67.578125 37.890625 63.234375 
Q 42.78125 58.890625 42.78125 53.328125 
Q 42.78125 49.609375 40.140625 45.75 
Q 37.5 41.890625 29.15625 36.671875 
Q 37.75 30.03125 40.53125 26.21875 
Q 44.234375 21.234375 44.234375 15.71875 
Q 44.234375 8.734375 38.90625 3.78125 
Q 33.59375 -1.171875 24.953125 -1.171875 
Q 15.53125 -1.171875 10.25 4.734375 
Q 6.0625 9.46875 6.0625 15.09375 
Q 6.0625 19.484375 9.015625 23.796875 
Q 11.96875 28.125 19.1875 33.34375 
z
M 26.859375 38.578125 
Q 32.71875 43.84375 34.28125 46.890625 
Q 35.84375 49.953125 35.84375 53.8125 
Q 35.84375 58.9375 32.953125 61.84375 
Q 30.078125 64.75 25.09375 64.75 
Q 20.125 64.75 17 61.859375 
Q 13.875 58.984375 13.875 55.125 
Q 13.875 52.59375 15.15625 50.046875 
Q 16.453125 47.515625 18.84375 45.21875 
z
M 21.484375 31.5 
Q 17.4375 28.078125 15.484375 24.046875 
Q 13.53125 20.015625 13.53125 15.328125 
Q 13.53125 9.03125 16.96875 5.25 
Q 20.40625 1.46875 25.734375 1.46875 
Q 31 1.46875 34.171875 4.4375 
Q 37.359375 7.421875 37.359375 11.671875 
Q 37.359375 15.1875 35.5 17.96875 
Q 32.03125 23.140625 21.484375 31.5 
z
" id="TimesNewRomanPSMT-56"/>
     </defs>
     <g transform="translate(489.5975 63.3425)scale(0.16 -0.16)">
      <use xlink:href="#TimesNewRomanPSMT-50"/>
      <use x="50" xlink:href="#TimesNewRomanPSMT-120"/>
      <use x="100" xlink:href="#TimesNewRomanPSMT-49"/>
      <use x="150" xlink:href="#TimesNewRomanPSMT-50"/>
      <use x="200" xlink:href="#TimesNewRomanPSMT-56"/>
      <use x="250" xlink:href="#TimesNewRomanPSMT-45"/>
      <use x="283.300781" xlink:href="#TimesNewRomanPSMT-68"/>
     </g>
    </g>
    <g id="line2d_23">
     <path d="M 444.7975 80.365 
L 476.7975 80.365 
" style="fill:none;stroke:#9467bd;stroke-width:2;"/>
    </g>
    <g id="line2d_24">
     <g>
      <use style="fill:#9467bd;" x="460.7975" xlink:href="#m4f2c64c915" y="80.365"/>
     </g>
    </g>
    <g id="text_18">
     <!-- 2x256-D -->
     <defs>
      <path d="M 43.40625 66.21875 
L 39.59375 57.90625 
L 19.671875 57.90625 
L 15.328125 49.03125 
Q 28.265625 47.125 35.84375 39.40625 
Q 42.328125 32.765625 42.328125 23.78125 
Q 42.328125 18.5625 40.203125 14.109375 
Q 38.09375 9.671875 34.859375 6.546875 
Q 31.640625 3.421875 27.6875 1.515625 
Q 22.078125 -1.171875 16.15625 -1.171875 
Q 10.203125 -1.171875 7.484375 0.84375 
Q 4.78125 2.875 4.78125 5.328125 
Q 4.78125 6.6875 5.90625 7.734375 
Q 7.03125 8.796875 8.734375 8.796875 
Q 10.015625 8.796875 10.96875 8.40625 
Q 11.921875 8.015625 14.203125 6.390625 
Q 17.875 3.859375 21.625 3.859375 
Q 27.34375 3.859375 31.65625 8.171875 
Q 35.984375 12.5 35.984375 18.703125 
Q 35.984375 24.703125 32.125 29.90625 
Q 28.265625 35.109375 21.484375 37.9375 
Q 16.15625 40.140625 6.984375 40.484375 
L 19.671875 66.21875 
z
" id="TimesNewRomanPSMT-53"/>
     </defs>
     <g transform="translate(489.5975 85.965)scale(0.16 -0.16)">
      <use xlink:href="#TimesNewRomanPSMT-50"/>
      <use x="50" xlink:href="#TimesNewRomanPSMT-120"/>
      <use x="100" xlink:href="#TimesNewRomanPSMT-50"/>
      <use x="150" xlink:href="#TimesNewRomanPSMT-53"/>
      <use x="200" xlink:href="#TimesNewRomanPSMT-54"/>
      <use x="250" xlink:href="#TimesNewRomanPSMT-45"/>
      <use x="283.300781" xlink:href="#TimesNewRomanPSMT-68"/>
     </g>
    </g>
    <g id="line2d_25">
     <path d="M 444.7975 102.9875 
L 476.7975 102.9875 
" style="fill:none;stroke:#d62728;stroke-width:2;"/>
    </g>
    <g id="line2d_26">
     <g>
      <use style="fill:#d62728;" x="460.7975" xlink:href="#m362f32b556" y="102.9875"/>
     </g>
    </g>
    <g id="text_19">
     <!-- 2x384-D -->
     <defs>
      <path d="M 5.078125 53.609375 
Q 7.90625 60.296875 12.21875 63.9375 
Q 16.546875 67.578125 23 67.578125 
Q 30.953125 67.578125 35.203125 62.40625 
Q 38.421875 58.546875 38.421875 54.15625 
Q 38.421875 46.921875 29.34375 39.203125 
Q 35.453125 36.8125 38.578125 32.375 
Q 41.703125 27.9375 41.703125 21.921875 
Q 41.703125 13.328125 36.234375 7.03125 
Q 29.109375 -1.171875 15.578125 -1.171875 
Q 8.890625 -1.171875 6.46875 0.484375 
Q 4.046875 2.15625 4.046875 4.046875 
Q 4.046875 5.46875 5.1875 6.546875 
Q 6.34375 7.625 7.953125 7.625 
Q 9.1875 7.625 10.453125 7.234375 
Q 11.28125 6.984375 14.203125 5.4375 
Q 17.140625 3.90625 18.265625 3.609375 
Q 20.0625 3.078125 22.125 3.078125 
Q 27.09375 3.078125 30.78125 6.9375 
Q 34.46875 10.796875 34.46875 16.0625 
Q 34.46875 19.921875 32.765625 23.578125 
Q 31.5 26.3125 29.984375 27.734375 
Q 27.875 29.6875 24.21875 31.265625 
Q 20.5625 32.859375 16.75 32.859375 
L 15.1875 32.859375 
L 15.1875 34.328125 
Q 19.046875 34.8125 22.921875 37.109375 
Q 26.8125 39.40625 28.5625 42.625 
Q 30.328125 45.84375 30.328125 49.703125 
Q 30.328125 54.734375 27.171875 57.828125 
Q 24.03125 60.9375 19.34375 60.9375 
Q 11.765625 60.9375 6.6875 52.828125 
z
" id="TimesNewRomanPSMT-51"/>
     </defs>
     <g transform="translate(489.5975 108.5875)scale(0.16 -0.16)">
      <use xlink:href="#TimesNewRomanPSMT-50"/>
      <use x="50" xlink:href="#TimesNewRomanPSMT-120"/>
      <use x="100" xlink:href="#TimesNewRomanPSMT-51"/>
      <use x="150" xlink:href="#TimesNewRomanPSMT-56"/>
      <use x="200" xlink:href="#TimesNewRomanPSMT-52"/>
      <use x="250" xlink:href="#TimesNewRomanPSMT-45"/>
      <use x="283.300781" xlink:href="#TimesNewRomanPSMT-68"/>
     </g>
    </g>
   </g>
  </g>
 </g>
 <defs>
  <clipPath id="p09bde8aa11">
   <rect height="289.86" width="519.94" x="40.94" y="15.12"/>
  </clipPath>
 </defs>
</svg>
